<?xml version="1.0" encoding="utf-8"?>
<!-- Generator: Adobe Illustrator 24.1.0, SVG Export Plug-In . SVG Version: 6.00 Build 0)  -->
<svg version="1.1" id="Layer_1" xmlns="http://www.w3.org/2000/svg" xmlns:xlink="http://www.w3.org/1999/xlink" x="0px" y="0px"
	 width="1800px" height="1200px" viewBox="0 0 1800 1200" enable-background="new 0 0 1800 1200" xml:space="preserve">
<g>
	<path fill="#D19433" d="M613.1,508.9c4.6,37.9-13.4,75.8-40.1,103.2c-26.7,27.3-61.1,45.5-95.8,61.5
		c-36.2,16.7-73.9,31.6-113.6,34.9c-46.4,3.9-101-5.6-132.8,28.4c-15.5,16.6-21.3,40-24.2,62.5c-2.2,16.7-2.5,35.6,8.7,48.2
		c7.3,8.2,18,12.1,27.6,17.4c27.1,15,46.4,43.4,50.2,74.1c1.2,9.9,1,20.3,5.2,29.4c4.2,9.1,14.8,16.4,24,12.6
		c6.2-2.5,9.7-8.9,14.2-13.9c14.3-15.9,38.2-17,59.2-21c49.5-9.3,92.2-38.9,135.1-65.1c63.6-38.9,134-72.2,208.5-72.7
		c44.4-0.3,87.9,11.1,131.4,20.2c58.1,12.1,117,20.3,176.1,24.3c34,2.3,69.8,2.9,100.2-12.4c7.7-3.9,15-8.8,23.3-11.3
		c10.2-3.1,21-2.4,31.7-2.1c94.4,2.7,186.5-25.9,276.6-54.3c8-2.5,16.2-5.2,22.2-11c6.6-6.5,9.4-15.7,12.8-24.3
		c9.1-22.8,24.2-43.2,43.4-58.4c10-7.9,22-15.8,24.7-28.3c1.9-8.6-1.3-17.5-4.9-25.6c-13.2-29.7-32.8-56-47.4-84.9
		c-14.6-29-24.2-62.6-15.3-93.8c2.9-10.1,7.7-20.4,5.1-30.6c-2-7.9-8.1-14.1-14.4-19.4c-35.6-30.1-64.4-36.6-110.4-44.4
		c-12.6-2.1-56.5-20.8-66.3-19.6c-24.3,3.1-27.6-32-40.6-52.7c-41.3-65.9-109.1-89-186.8-85.2c-47.7,2.3-91.9,24.9-134.1,47.3
		c-12.1,6.4-24.6,13.2-32.9,24.1c-4.9,6.4-8.4,14.3-15,18.9c-9.1,6.3-21.3,4.7-32.4,5.5c-37.5,2.6-66.6,34.4-102.9,44.5
		c-35.2,9.8-76.4-0.8-106.5,19.9c-18.1,12.5-27.7,33.8-35.4,54.4c-13.2,35.5-23,72.3-29.4,109.7"/>
	<g>
		<path fill="#D19433" d="M601.9,508.9c7,63.7-44.8,110.2-95.7,137.8c-28.3,15.3-58.1,28.9-88.7,38.9c-15.9,5.2-32.3,9.4-48.9,11.2
			c-13.7,1.5-27.6,1.6-41.4,1.8c-26.1,0.4-53.1,1-77.5,11.6c-27,11.8-43.2,36.3-50,64.3c-6.4,26.2-12.1,62.6,10,83.2
			c10.5,9.9,24.7,14,36.3,22.3c10.8,7.7,19.6,18.1,25.9,29.6c6.7,12.1,9.6,25,10.9,38.7c1.4,15.3,4.6,30.9,18.3,39.9
			c12.8,8.4,27.7,5.4,37.4-6c3.9-4.6,7.3-9.5,12.5-12.8c5.4-3.4,11.3-5.3,17.4-6.8c13.8-3.4,28-4.6,41.8-8.1
			c15.5-3.9,30.5-9.9,45-16.7c28.7-13.5,55.2-31.2,82.2-47.6c54.2-33,113.7-62.9,177.7-69.3c33.2-3.3,66.2,0.6,98.8,7.1
			c34.8,6.9,69.2,15.1,104.1,20.9c35.1,5.9,70.5,10.4,105.9,13.5c32.2,2.8,65.2,5.6,97.1-1.1c16-3.4,29.7-10.4,44-17.7
			c14.9-7.6,31.2-5.1,47.3-5c34.1,0.2,68.1-3.7,101.6-9.8c34.5-6.3,68.5-15.2,102.1-25c16.9-4.9,33.6-10.1,50.4-15.4
			c14.1-4.4,30.1-7.7,41.4-17.9c11.1-10,13.9-25.6,20.4-38.5c6.5-12.8,14.8-24.5,25-34.6c9.9-9.9,22.7-17,31.4-28
			c10.7-13.5,10.3-29.4,4-44.8c-12.6-30.6-32.5-57.3-47.8-86.5c-13.9-26.7-24.3-58.5-15.9-88.5c4.4-15.7,10.3-31.3,0.8-46.6
			c-7.6-12.2-20.8-21.3-32.5-29.2c-21.2-14.3-45.2-22.5-70-27.6c-11.1-2.3-22.5-3.4-33.4-6.7c-9.7-3-19.3-6.6-28.9-9.9
			c-8.5-2.9-17.2-6.2-26.2-7.6c-3.7-0.6-7.4,0.1-11-0.4c-2.1-0.3-4.2-1.9-6.4-4.9c-5.9-8-9-18.6-12.9-27.8c-5-11.7-11.7-22-19.5-32
			c-15.7-20.2-35.5-37.1-58.2-49.1c-46.9-24.8-106.5-31.1-158.1-20.1c-32,6.8-62.1,20.9-91.1,35.9c-13.1,6.8-26.9,13.3-38.7,22.2
			c-6.2,4.7-11.4,9.9-15.9,16.2c-3.5,4.9-6.3,11.4-11.7,14.4c-5.7,3.1-13.1,2.4-19.3,2.6c-7.7,0.2-15.4,1.1-22.8,3
			c-13.6,3.6-26.4,10.2-38.5,17.1c-11.9,6.8-23.6,14.3-36.1,19.9c-12.3,5.6-25.4,8-38.8,9c-28.3,2.1-59.8,0.1-84.3,17.1
			c-25,17.3-35.8,46.8-45.3,74.4c-10.8,31.4-19,63.6-24.6,96.3c-1,5.9,1.6,12,7.8,13.7c5.4,1.5,12.7-1.8,13.7-7.8
			c5.7-33.1,14-65.8,25-97.5c8.5-24.5,18.3-53.6,43.7-65.1c25.1-11.4,55.3-6.6,82-10.8c27.4-4.3,49.8-20,73.6-33
			c11.3-6.2,23.3-11.9,36.3-13.5c14.6-1.8,29.6,0.9,42.3-8.5c10.7-8,15.1-21.4,25.8-29.5c11.5-8.7,25.3-14.9,38.1-21.5
			c28.4-14.7,57.8-28.1,89.4-34c25.4-4.7,53-4,78.4,0.1c48.1,7.9,90.8,32.4,117.9,73.6c11.2,17,14,41.2,30.1,54.7
			c4,3.3,8.5,5.7,13.7,6.7c2.7,0.5,5.3,0.6,8,0.5c0.9,0,5,0.2,2.3-0.2c8.6,1.2,17.1,4.6,25.2,7.4c9.2,3.2,18.4,6.6,27.7,9.5
			c10.3,3.2,21,4.3,31.5,6.4c24.2,4.8,47.1,12.1,67.7,26c5.2,3.5,10.3,7.4,15.1,11.5c4.5,3.9,10.1,8.4,11.5,14.5
			c1.6,6.9-2,14.6-4.1,21.1c-2.4,7.8-3.9,15.7-4.6,23.8c-2.5,31.1,9,61.8,23.4,88.8c7.5,13.9,15.9,27.3,24,40.9
			c8,13.5,17,27.6,21.9,42.6c2.1,6.3,2.9,12.3-1,18c-3.5,5.1-8.8,9-13.6,12.8c-11.5,9-21.8,18.6-30.7,30.2
			c-8.8,11.5-15.7,23.9-21,37.4c-2.3,5.8-4.2,12.3-8.1,17.3c-4,5.1-10.2,7.3-16.1,9.3c-31.8,10.4-64,20.2-96.3,28.9
			c-32.5,8.8-65.4,16.4-98.7,21.1c-16.7,2.4-33.5,3.9-50.3,4.6c-16.2,0.7-32.5-0.8-48.6,0c-16.6,0.8-28.9,7.9-43.4,15.1
			c-13,6.5-27.6,9.8-42,11.2c-32.5,3-65.9-0.9-98.3-4.3c-33.9-3.5-67.6-8.5-101.1-14.7c-33.7-6.3-67-14.9-100.8-20.4
			c-32.2-5.3-64.3-7.1-96.7-2.6c-31.4,4.3-61.7,13.8-90.9,26.1c-28.6,12.1-55.9,26.8-82.4,42.8c-26.8,16.2-52.8,33.7-81,47.4
			c-13.4,6.5-27.3,12-41.7,15.9c-13.2,3.5-26.8,4.9-40.1,7.8c-13.1,2.8-26,7.7-35.8,17.1c-3.7,3.5-7.3,11.6-12.2,13.4
			c-4,1.5-8-3-9.7-6.1c-3-5.5-3.3-12.4-3.8-18.5c-0.7-7.4-1.5-14.8-3.4-22c-3.3-12.8-9.2-25.3-16.9-36
			c-8.2-11.4-18.1-21.2-29.9-28.9c-10.7-7.1-26.4-10.7-33.5-22.1c-6.7-10.8-5.1-25.6-3.5-37.6c1.8-13.2,4.5-27,10.4-39
			c11.6-23.5,33.6-33.9,58.6-37.3c25.4-3.5,51.3-1.3,76.8-3.5c32.9-2.8,64.3-12.8,94.6-25.6c54.8-23.1,113.7-51.4,146-103.9
			c14.8-24.2,23.2-52.8,20.1-81.2c-0.7-6-4.7-11.2-11.2-11.2C607.5,497.8,601.2,502.9,601.9,508.9L601.9,508.9z"/>
	</g>
</g>
<g>
	<path fill="#C97F27" d="M284.4,938.5c-3.1-13.5-14.2-38.8-23.9-48.7c-9.7-9.9-15.8-22.4-22.3-34.7c-10.3-19.6-8.7-42.9-10.6-64.9
		c-0.4-4.6-1-9.4,0.3-13.9c1.2-4.2,3.9-7.8,6.6-11.4c4.6-6,9.2-12.1,13.8-18.1c3.4-4.5,6.9-9.1,11.3-12.7c4.4-3.6,9.8-6.3,15.4-6.4
		l-0.4,0.5c-10.9,10.6-18,24.6-22,39.2c-4,14.6-5.1,29.9-5.3,45.1c-0.1,5.4,0,10.8,0.8,16.1c1.2,7.4,3.8,14.5,6.9,21.3
		c5,11,11.1,21.4,18.3,31.1c4.3,5.8,9,11.5,11.5,18.2C287.5,906.1,284.2,931.1,284.4,938.5"/>
	<g>
		<path fill="#C97F27" d="M288,937.5c-1.4-5.9-3.5-11.7-5.8-17.4c-2.8-6.7-5.9-13.4-9.5-19.7c-1.6-2.7-3.2-5.4-5.1-7.9
			c-2-2.7-4.2-5-6.4-7.4c-0.7-0.8-1.4-1.6-2-2.4c-0.3-0.4-0.6-0.8-0.9-1.1c-0.2-0.2-0.3-0.4-0.5-0.6c0.4,0.5-0.3-0.4-0.3-0.4
			c-1.2-1.7-2.4-3.3-3.6-5.1c-2.3-3.5-4.4-7.1-6.3-10.7c-2.1-3.8-4-7.6-6-11.4c-0.4-0.9-0.9-1.7-1.3-2.6c-0.2-0.4-0.4-0.9-0.6-1.3
			c-0.1-0.2-0.2-0.4-0.3-0.7c0.3,0.6-0.2-0.4-0.2-0.4c-0.8-1.9-1.4-3.8-2-5.8c-1.2-4-2.1-8-2.8-12.1c-0.2-1-0.3-2-0.5-3
			c0.1,0.7-0.1-0.7-0.1-0.8c-0.1-0.6-0.1-1.2-0.2-1.8c-0.2-2.1-0.4-4.1-0.6-6.2c-0.7-8.4-0.9-16.8-1.5-25.2c-0.3-4.4-1-8.8-0.7-13.2
			c0-0.1,0.2-1.5,0.1-0.9c0.1-0.5,0.2-1,0.3-1.5c0.1-0.5,0.3-1.1,0.5-1.6c0.1-0.2,0.2-0.5,0.2-0.7c0.1-0.2,0.3-0.8,0.1-0.3
			c0.9-1.9,2-3.8,3.3-5.5c2.7-3.8,5.6-7.4,8.3-11c2.8-3.7,5.6-7.4,8.5-11.1c1.1-1.5,2.3-3,3.8-4.7c1.4-1.6,2.8-3.2,4.4-4.7
			c1.8-1.7,2.5-2.3,4.5-3.6c1.8-1.2,3.3-1.9,4.9-2.4c0.9-0.3,1.8-0.5,2.7-0.7c0.2,0,0.5-0.1,0.7-0.1c-0.7,0.1,0.1,0,0.2,0
			c0.5-0.1,1.1-0.1,1.6-0.1c-1.1-1.9-2.1-3.7-3.2-5.6c-0.1,0.1-0.2,0.4-0.4,0.5c0.4-0.2,0.4-0.6,0-0.2c-0.2,0.2-0.3,0.3-0.5,0.5
			c-0.7,0.7-1.5,1.5-2.2,2.3c-1.4,1.5-2.6,3.1-3.9,4.7c-2.4,3.1-4.6,6.4-6.5,9.8c-3.9,6.9-6.9,14.4-9.1,22.1
			c-2.5,8.7-3.9,17.6-4.7,26.5c-0.8,8.9-1.2,18-1,27c0.1,4.7,0.6,9.5,1.6,14.1c0.9,4.2,2.3,8.2,3.8,12.2c3.2,8.1,7.1,15.8,11.5,23.3
			c2.2,3.7,4.5,7.3,7,10.8c2.4,3.4,4.9,6.6,7.3,9.9c2.4,3.3,4.7,6.7,6.3,10.5c-0.2-0.6,0.2,0.4,0.2,0.6c0.1,0.2,0.1,0.3,0.2,0.5
			c0.1,0.4,0.2,0.8,0.3,1.1c0,0.2,0.1,0.4,0.1,0.6c0.2,0.9-0.1-0.7,0-0.1c0.1,0.6,0.1,1.1,0.2,1.7c0.8,10.6-0.9,21.3-1.4,31.9
			c0,0.8-0.1,1.6,0,2.4c0,1.9,1.7,3.8,3.7,3.7c2-0.1,3.8-1.6,3.7-3.7c-0.1-4.5,0.4-9,0.8-13.5c0.4-5.7,0.8-11.4,0.8-17.1
			c0-2.5-0.2-5-0.6-7.5c-0.5-3-2-5.8-3.4-8.4c-2-3.5-4.4-6.8-6.8-10c-2.5-3.3-5-6.7-7.3-10.2c-4.7-7.1-8.8-14.5-12.4-22.1
			c-1.9-4-3.2-7.1-4.6-11.3c-0.7-2-1.3-4.1-1.8-6.1c-0.2-0.9-0.4-1.9-0.6-2.8c-0.1-0.5-0.2-1-0.3-1.5c-0.1-0.7-0.2-1.1-0.2-1.4
			c-1-8.9-0.6-18-0.1-27c0.3-4.4,0.6-8.8,1.2-13.2c0-0.3,0.1-0.5,0.1-0.8c0,0.2-0.1,0.6,0-0.2c0.1-0.5,0.2-1.1,0.2-1.6
			c0.2-1.1,0.3-2.1,0.5-3.2c0.4-2.2,0.8-4.5,1.3-6.7c0.9-4,2-8,3.3-11.8c0.6-1.8,1.3-3.5,2-5.3c0-0.1,0.6-1.4,0.3-0.7
			c0.2-0.4,0.4-0.9,0.6-1.3c0.4-1,0.9-1.9,1.3-2.9c1.7-3.5,3.6-6.8,5.7-10c0.5-0.7,1-1.4,1.5-2.2c0.3-0.4,0.5-0.8,0.8-1.1
			c0.1-0.2,0.3-0.4,0.4-0.6c0.2-0.3-0.2,0.3,0.2-0.2c1.2-1.6,2.5-3.1,3.9-4.5c1.2-1.3,2.4-2.4,3.4-3.8c1.7-2.3-0.6-5.7-3.2-5.6
			c-9.3,0.2-17.2,5.8-23.2,12.5c-3.2,3.6-6,7.4-8.9,11.2c-2.9,3.8-5.9,7.7-8.8,11.5c-2.7,3.5-5.6,7-7.7,10.9c-2.3,4.4-3.2,9-3,14
			c0.2,4.4,0.7,8.9,1,13.3c0.3,4.3,0.4,8.6,0.7,12.9c0.5,8.7,1.1,17.5,2.9,26c0.8,4.1,1.9,8.2,3.4,12.1c1.5,4.2,3.5,8.1,5.6,12.1
			c3.9,7.6,7.9,15.2,12.9,22.2c2.5,3.6,5.3,6.9,8.3,10.1c0.5,0.5,0.9,1,1.3,1.5c0.2,0.2,0.4,0.5,0.6,0.7c0.2,0.2,1,1.1,0.3,0.4
			c1,1,1.8,2.5,2.6,3.7c3.9,5.8,7.1,12.1,10,18.5c0.4,0.8,0.7,1.6,1.1,2.4c0.2,0.4,0.3,0.8,0.5,1.1c-0.3-0.7-0.1-0.2,0,0
			c0.1,0.3,0.2,0.6,0.4,0.8c0.7,1.6,1.3,3.2,1.9,4.8c1.1,3,2.2,6,3,9.1c0.4,1.2,0.7,2.5,1,3.7c0.4,1.9,2.7,3.2,4.6,2.6
			C287.3,941.4,288.4,939.5,288,937.5L288,937.5z"/>
	</g>
</g>
<g>
	<path fill="#C97F27" d="M1062.6,202.1c-13.7,51.1-18.3,104.6-13.6,157.2c1.1,12.5,2.8,25.1,6.6,37c3.8,12.1,9.8,23.4,16.1,34.4
		c13.7,23.8,29.3,46.5,46.5,67.9c15.6,19.3,32.6,37.7,44.2,59.6c14.8,27.8,19.9,59.5,24.9,90.6c-19.5-53.3-65.5-91.7-109.5-127.6
		c-8.4-6.8-16.8-13.7-26.1-19.1c-10.5-6.2-21.9-10.5-32.8-15.9c-33.5-16.8-61.4-44.5-78.3-77.8s-22.9-72.2-16.8-109.2
		c2.4-14.2,6.6-28.3,15.1-39.9c7.2-9.7,12.5-16.5,22.5-23.2c23-15.3,52.6-28.1,78.8-36.8c7.2-2.4,17.9-7.1,25.5-6.4
		c0.7,2.7-3.6,13.5-6.1,14.7"/>
	<g>
		<path fill="#C97F27" d="M1059,201.1c-8.5,31.8-13.5,64.4-15,97.3c-0.7,16.3-0.6,32.5,0.4,48.8c1,16.1,2.4,32.6,7,48.1
			c4.5,15.4,12.4,29.5,20.6,43.2c8.2,13.8,16.9,27.1,26.3,40.1c9.2,12.8,19.1,24.9,29.2,37.1c9.6,11.6,19.1,23.2,27,36.1
			c16.2,26.3,22.5,56.7,27.5,86.8c0.6,3.8,1.2,7.5,1.8,11.3c2.4-0.7,4.8-1.3,7.2-2c-14.3-38.8-42.2-70-72.5-97.2
			c-15.6-14-31.8-27.5-48.3-40.3c-9.4-7.3-19.2-13.4-30-18.4c-10.1-4.7-20.3-9.1-30-14.8c-34.8-20.6-62-53.6-75.3-91.9
			c-7.3-21.1-10.5-43.4-9.4-65.7c0.5-10.9,2-21.8,4.8-32.4c2.9-10.7,7.6-20.1,14.2-29c5.7-7.6,12-14.2,19.9-19.4
			c9.1-6,18.7-11.3,28.5-16.1c19.2-9.5,39.4-17,59.8-23.6c4.3-1.4,8.7-2.7,13.3-2.3c-1.2-0.9-2.4-1.8-3.6-2.7c-0.2-0.9,0,0-0.1,0.4
			c0.1-0.5-0.2,0.9-0.3,1.2c-0.4,1.4-0.8,2.8-1.4,4.1c-0.5,1.1-1,2.2-1.6,3.2c-0.2,0.4-0.8,1.3-0.8,1.4c0.2-0.2-0.2,0.2-0.3,0.3
			c-0.4,0.4,0.7-0.4,0,0c-4.1,2.4-0.4,8.8,3.8,6.4c3-1.8,4.6-5.7,5.9-8.8c1.3-3.1,2.6-6.7,1.9-10.1c-0.3-1.7-2-2.6-3.6-2.7
			c-9.8-0.8-19.6,4.2-28.6,7.2c-10.6,3.5-21,7.5-31.2,11.9c-10.4,4.5-20.6,9.4-30.5,14.9c-9.3,5.2-18.8,10.6-26.5,18.1
			c-3.4,3.3-6.4,7-9.3,10.8c-3.2,4.2-6.4,8.5-8.9,13.2c-5.2,9.7-8.3,20.5-10.3,31.3c-4,22.5-3.6,45.7,1,68.1
			c8.5,41.8,32.2,79.7,65.9,105.8c8.1,6.3,16.7,12,25.8,16.8c10.3,5.5,21.1,9.6,31.4,15c10.5,5.5,19.8,12.7,28.9,20.1
			c8.2,6.7,16.4,13.3,24.4,20.1c31.3,26.5,61.9,55.8,79.9,93.2c2.2,4.5,4.1,9.2,5.9,13.9c1.7,4.5,7.9,2.7,7.2-2
			c-4.8-30-9.8-60.4-23.4-87.9c-13.6-27.3-35.6-49.2-54-73.2c-9.7-12.6-18.7-25.6-27.2-39c-8.4-13.3-16.8-27-23.1-41.4
			c-6.4-14.7-9-30.3-10.5-46.1c-1.5-16.2-2.1-32.5-1.8-48.7c0.6-32.5,4.6-64.9,12.2-96.5c0.9-4,1.9-7.9,3-11.8
			C1067.4,198.5,1060.2,196.5,1059,201.1L1059,201.1z"/>
	</g>
</g>
<g>
	<path fill="#C97F27" d="M338.5,702.1c68.8,1.1,151.6-7.8,218.1-25.5c66.5-17.7,130.3-47.6,183.2-91.6c39.1-32.4,73.3-73,120.3-92.3
		c50.5-20.8,100.1-14.6,154.4-8.5l-0.1-0.5c-13-8.6-32.3-19.8-43.7-30.5c-11.4-10.8-21.3-23-29.5-36.4
		c-16.2-26.4-25.4-56.9-28.2-87.8c-0.6-6.8-0.9-13.7-0.6-20.6c0.7-13.7,5.8-26.3,11.5-38.8l-1.2-0.7c-10.5,10.7-27.5,10.2-42.4,12.1
		c-41.7,5.5-76.7,35.5-118,42.9c-30.1,5.3-64-1-89.1,16.4c-11.2,7.8-19,19.5-25.9,31.3c-21.1,36.5-35.1,77.1-41,118.9
		c-3,21.4-4,43.3-11.7,63.4c-8.9,23.1-26,42-44.1,58.8c-30.9,28.8-164.6,79.8-205.8,89.4"/>
	<g>
		<path fill="#C97F27" d="M338.5,705.8c48.5,0.7,97.1-3,145-10.4c47.3-7.3,94-18.6,138.4-36.7c44.3-18,86.1-42.1,122.8-72.9
			c34.7-29.1,65.4-64.4,106.4-85c22-11,46.3-16.7,70.8-18.3c24.5-1.6,49.1,0.5,73.5,3.2c6.4,0.7,12.8,1.4,19.2,2.1
			c2.5,0.3,4.1-2.6,3.6-4.7c-0.6-2.7-3.8-4-5.9-5.3c-3.3-2.1-6.6-4.2-9.9-6.3c-6.6-4.2-13.2-8.5-19.5-13.2
			c-13-9.6-24-22.1-33.1-35.4c-19.1-27.7-29.9-60.6-32.9-94c-0.9-9.7-1.4-19.8,0.5-29.4c1.9-9.8,5.8-19.1,9.9-28.1
			c0.8-1.9,0.5-3.9-1.3-5.1c-0.4-0.2-0.8-0.5-1.2-0.7c-1.4-0.9-3.4-0.6-4.5,0.6c-9.8,9.7-25,9.3-37.8,10.8
			c-14.5,1.7-28.2,6.1-41.6,11.7c-26.9,11.3-52.4,27.3-81.6,31.9c-27.9,4.4-58.9-0.9-84.3,14.1c-12.7,7.5-21.7,19.6-29.1,32.1
			c-8.2,13.8-15.3,28.2-21.4,43c-12.5,30.3-19.7,61.8-23.5,94.2c-1.9,16.5-3.8,33.2-9.9,48.8c-5.4,14.1-14.2,26.6-24.1,37.9
			c-7.3,8.3-15.2,16.8-24.1,23.5c-6.2,4.7-12.9,8.7-19.6,12.5c-18.1,10.2-37.1,19-56.2,27.2c-20.8,9-41.8,17.4-63.1,25.2
			c-16.9,6.2-34,12.2-51.4,17.1c-2.9,0.8-5.9,1.6-8.8,2.3c-4.7,1.1-2.7,8.3,2,7.2c15.7-3.7,31-9,46.2-14.4
			c20.9-7.3,41.6-15.3,62.1-23.8c20.4-8.5,40.6-17.4,60.2-27.5c14.2-7.3,28.8-15.2,40.5-26.2c10.9-10.3,21.2-21.2,29.8-33.5
			c8.9-12.7,15.1-26.9,18.6-42c3.7-16.4,4.7-33.2,7.2-49.8c2.4-16.2,6.1-32.3,10.9-48c4.8-15.6,10.7-30.8,17.8-45.5
			c6.7-13.8,14-28.2,23.8-40c9.6-11.4,21.8-18.3,36.3-21.4c14.4-3.1,29.4-2.9,44-3.8c14.8-1,29.1-3.6,43.1-8.6
			c13.8-5,26.9-11.5,40.2-17.8c13.2-6.3,26.6-12.3,40.9-16c13.5-3.5,27.7-2.8,41.1-6.5c6.3-1.7,12.1-4.7,16.8-9.3
			c-1.5,0.2-3,0.4-4.5,0.6c0.4,0.2,0.8,0.5,1.2,0.7c-0.4-1.7-0.9-3.4-1.3-5.1c-3.7,8.2-7.3,16.4-9.5,25.1
			c-2.3,8.7-2.8,17.5-2.5,26.5c0.6,17.4,3.6,34.9,8.4,51.6c9.4,32.5,27.1,63.3,52.4,86.1c13,11.7,28.5,20.3,43,29.8
			c-0.6-0.7-1.1-1.5-1.7-2.2c0,0.2,0.1,0.3,0.1,0.5c1.2-1.6,2.4-3.1,3.6-4.7c-48.9-5.5-99.2-11.4-146.7,5.3
			c-43.9,15.5-76.9,48.6-110.6,79.1c-17.6,15.9-36,30.8-55.8,43.9c-19.9,13.2-41,24.7-62.7,34.6c-43.5,19.9-89.7,32.9-136.8,41.4
			c-48.2,8.7-97.3,13.3-146.2,13.6c-5.8,0-11.5,0-17.3-0.1C333.7,698.3,333.7,705.7,338.5,705.8L338.5,705.8z"/>
	</g>
</g>
<g>
	<path fill="#966D32" d="M338.5,702.1c-19.7,0.2-47.4,0.4-66.8,3.6c-7.5,1.3-15.1,2.8-22,6.1c-13.3,6.3-29,13.8-35.1,27.2
		s-13.1,26.2-16,40.7c-1.9,9.5-4.4,24.1-4.3,33.8c0.1,9.7,5.7,30.4,11.4,38.2c3.7,5,15.2,11.6,20.3,15.1c8,5.6,31.2,26.9,40.1,31.1
		l-17-24.2c-16.6-25.2-23.2-61.7-16-91.1c1.7-7,4.4-13.8,7.7-20.2C258.2,728.5,300.5,705.1,338.5,702.1"/>
	<g>
		<path fill="#966D32" d="M338.5,698.4c-12.2,0.1-24.4,0.2-36.6,0.8c-12.6,0.6-25.1,1.6-37.5,4.1c-3.4,0.7-6.9,1.6-10.2,2.7
			c-3.2,1.1-6.2,2.5-9.3,4c-5.1,2.4-10.2,5-15,8c-4.8,3-9.5,6.6-13.2,11c-1.9,2.2-3.6,4.6-4.9,7.2c-1.5,3-2.8,6.1-4.3,9.1
			c-3.1,6.5-6.1,12.9-8.6,19.6c-2.3,6.1-3.8,12.3-4.9,18.7c-1.1,6.2-2.1,12.4-2.8,18.7c-0.5,5-1,10.1-0.4,15.1
			c1.2,10.4,4,21,8.4,30.5c1.9,4.1,4.3,7.5,7.8,10.4c4.3,3.5,9,6.5,13.6,9.5c1.5,1,3.1,2,4.5,3.1c0.3,0.2,0.6,0.4,0.8,0.6
			c0.5,0.4,0.1,0.1-0.2-0.1c0.2,0.1,0.4,0.3,0.5,0.4c0.7,0.6,1.4,1.1,2.1,1.7c3.4,2.8,6.8,5.6,10.2,8.4c7.1,5.9,14.2,12.1,21.9,17.2
			c1.2,0.8,2.4,1.5,3.7,2.1c1.5,0.7,3.3,0.7,4.5-0.6c1.1-1.1,1.5-3.1,0.6-4.5c-5.4-7.6-10.8-15.3-16.1-22.9
			c-1.3-1.9-2.5-3.8-3.7-5.8c-1.3-2.2-2.4-4.4-3.5-6.6c-0.5-1-1-2-1.4-3c-0.3-0.6-0.5-1.1-0.7-1.7c-0.1-0.3-0.2-0.6-0.4-0.8
			c0.4,0.8-0.2-0.4-0.2-0.5c-3.9-9.5-6.5-19.4-8-29.6c0-0.3-0.1-0.6-0.1-0.9c-0.2-1,0.1,0.8,0-0.3c-0.1-0.6-0.2-1.2-0.2-1.9
			c-0.1-1.2-0.3-2.5-0.4-3.8c-0.2-2.6-0.4-5.2-0.4-7.8c-0.1-5,0.1-10.1,0.6-15.1c0.1-0.6,0.1-1.2,0.2-1.8c0-0.2,0.1-1.2,0-0.2
			c0-0.2,0.1-0.5,0.1-0.7c0.2-1.2,0.4-2.5,0.6-3.7c0.5-2.6,1-5.1,1.7-7.7c0.8-2.8,1.7-5.5,2.7-8.2c0.3-0.7,0.5-1.3,0.8-2
			c0.5-1.1-0.3,0.6,0.2-0.4c0.1-0.3,0.3-0.7,0.4-1c0.6-1.4,1.3-2.8,2-4.2c2.1-4.1,4.4-8.1,7.1-11.8c0.6-0.8,1.2-1.7,1.8-2.5
			c-0.6,0.8,0,0,0.1-0.1c0.2-0.2,0.3-0.4,0.5-0.7c0.4-0.5,0.8-1,1.2-1.5c1.5-1.7,3-3.4,4.5-5.1c3.2-3.4,6.7-6.6,10.3-9.6
			c0.4-0.4,0.9-0.7,1.4-1.1c0.2-0.2,0.5-0.4,0.7-0.5c0.1-0.1,0.9-0.7,0.2-0.1c1-0.8,2-1.5,3-2.3c1.9-1.4,3.8-2.7,5.8-4
			c4-2.6,8.2-5,12.5-7.1c2.2-1.1,4.4-2.1,6.7-3.1c0.3-0.1,0.5-0.2,0.8-0.3c0.9-0.4-0.7,0.3,0.2-0.1c0.5-0.2,0.9-0.4,1.4-0.6
			c1.2-0.5,2.4-0.9,3.6-1.4c8.8-3.3,17.9-5.7,27.2-7c0.2,0,1.1-0.2,0.1,0c0.3,0,0.6-0.1,0.8-0.1c0.6-0.1,1.1-0.1,1.7-0.2
			c1.1-0.1,2.2-0.2,3.3-0.3c1.9-0.2,3.8-1.6,3.7-3.7C342.2,700.2,340.6,698.2,338.5,698.4c-19.5,1.6-38.7,7.8-55.7,17.4
			c-16.9,9.5-32.2,22.8-42.3,39.5c-5.8,9.6-10,20.3-12.1,31.3c-1.9,10.2-2.4,20.6-1.5,31c0.9,10.6,2.9,21.1,6.2,31.1
			c3.1,9.4,7.2,18.8,12.8,26.9c5.4,7.9,11,15.6,16.5,23.4c0.2,0.3,0.4,0.5,0.5,0.8c1.7-1.7,3.4-3.4,5.1-5.1c-3-1.4-5.7-3.5-8.3-5.4
			c-0.4-0.3-0.8-0.6-1.1-0.9c-0.2-0.2-0.4-0.3-0.6-0.5c-0.1-0.1-0.2-0.2-0.4-0.3c-0.4-0.3,0.6,0.5,0.2,0.2c-0.9-0.7-1.8-1.4-2.7-2.1
			c-1.9-1.5-3.7-3-5.5-4.5c-6.7-5.5-13.2-11.3-20.1-16.5c-3.4-2.5-7-4.7-10.6-7c-1.1-0.8-2.3-1.5-3.4-2.3c-0.5-0.4-1.1-0.8-1.6-1.1
			c-0.2-0.2-0.4-0.3-0.7-0.5c-0.5-0.4,0.1,0,0.1,0.1c-0.1-0.1-0.3-0.2-0.4-0.3c-0.9-0.7-1.8-1.5-2.7-2.3c-0.4-0.3-0.7-0.7-1-1.1
			c-0.2-0.2-0.3-0.4-0.5-0.5c-0.4-0.4,0.5,0.8,0,0c-1.1-1.6-2.1-3.4-2.9-5.2c-0.2-0.5-0.5-1-0.7-1.5c-0.1-0.3-0.6-0.9-0.1-0.1
			c-0.2-0.3-0.3-0.7-0.4-0.9c-0.5-1.1-0.9-2.3-1.3-3.4c-1.7-4.9-3.1-10-4.2-15.1c-0.2-1.2-0.5-2.4-0.7-3.6c-0.1-0.5-0.2-1-0.2-1.5
			c-0.1-0.5,0.1,0.8,0,0.3c0-0.1,0-0.2,0-0.3c0-0.3-0.1-0.6-0.1-0.9c-0.2-2.1-0.3-4.2-0.2-6.4c0.1-2.8,0.3-5.6,0.6-8.5
			c0.1-0.7,0.2-1.4,0.2-2c0-0.4,0.1-0.7,0.1-1.1c0-0.2,0.1-0.4,0.1-0.6c0-0.1,0.1-0.8,0-0.3c-0.1,0.5,0-0.2,0-0.3
			c0-0.2,0-0.3,0.1-0.5c0.1-0.4,0.1-0.7,0.2-1.1c0.1-0.8,0.2-1.6,0.4-2.4c0.9-5.8,1.8-11.7,3.3-17.3c0.8-3.3,1.9-6.5,3-9.6
			c0.6-1.6,1.2-3.2,1.9-4.8c0.1-0.2,0.5-1.2,0.2-0.6c0.1-0.3,0.3-0.7,0.4-1c0.4-0.8,0.7-1.6,1.1-2.4c1.4-3.1,2.8-6.2,4.3-9.2
			c1.4-3,2.8-6.1,4.3-9.1c0.6-1.1,1.2-2.3,2-3.3c0.2-0.3,0.8-1.5,1.1-1.6c0,0-0.5,0.7-0.1,0.1c0.1-0.1,0.2-0.2,0.3-0.3
			c0.2-0.3,0.5-0.6,0.7-0.8c1.8-2,3.7-3.9,5.8-5.5c0.1-0.1,0.9-0.7,0.5-0.4c-0.4,0.3,0.4-0.3,0.5-0.4c0.6-0.4,1.2-0.9,1.8-1.3
			c1.2-0.8,2.3-1.6,3.5-2.3c2.4-1.5,4.8-2.8,7.3-4.1c2.4-1.3,4.9-2.5,7.4-3.6c1.3-0.6,2.7-1.3,4-1.9c0.4-0.2,0,0-0.1,0
			c0.2-0.1,0.4-0.2,0.7-0.3c0.4-0.2,0.8-0.3,1.2-0.4c0.8-0.3,1.7-0.6,2.5-0.9c6.2-2,12.6-3.1,19-4c0.3,0,0.7-0.1,1-0.1
			c0.4-0.1-0.2,0-0.3,0c0.2,0,0.4-0.1,0.6-0.1c0.7-0.1,1.5-0.2,2.2-0.3c1.5-0.2,2.9-0.3,4.4-0.5c3-0.3,6-0.5,9.1-0.7
			c12.3-0.8,24.7-1.1,37.1-1.2c2.7,0,5.4-0.1,8.1-0.1c1.9,0,3.8-1.7,3.7-3.7C342.2,700.1,340.6,698.3,338.5,698.4L338.5,698.4z"/>
	</g>
</g>
<g>
	<g>
		<path fill="#966D32" d="M347.2,908.5c-0.2-12.5-3.6-24.6-7.9-36.2c-2-5.4-4.2-10.8-7.3-15.8c-3.1-5-7-9.4-11.8-12.7
			c-5.1-3.5-11.5-5.7-17.8-5.3c-1.9,0.1-3.8,1.6-3.7,3.7c0.1,2.1,1.6,3.6,3.7,3.7c0.2,0,0.4,0,0.6,0c-0.3,0-0.7-0.1-1-0.1
			c2,0.8,4.1,1.7,6.1,2.5c-0.3-0.1-0.6-0.2-0.9-0.4c0.1,0,1.1,0.4,1.1,0.5c0,0-0.5-0.5-0.5-0.5c0,0,0.1,0.1,0.1,0.1
			c0.1,0.1,0.3,0.3,0.4,0.4c0.5,0.5,1,1,1.6,1.5c1.8,1.7,3.6,3.4,5.4,5.1c4.2,4,8.3,7.9,12.5,11.9c1,0.9,1.9,1.8,2.9,2.7
			c1.4,1.3,3.4,1.4,4.9,0.3c1.4-1.1,2-3.2,1-4.8c-5.9-8.9-13.7-16.5-22.8-22.1c-2.5-1.5-5-2.9-7.6-4.1c-0.6,2.3-1.3,4.6-1.9,6.9
			c0.7,0,1.4,0.1,2.1,0.1c-0.3,0-0.7-0.1-1-0.1c1,0.3,1.9,0.7,2.9,1.1c-0.3-0.1-0.6-0.2-0.9-0.4c2.4,1,4.7,2.3,6.8,3.8
			c0.3,0.2,0.5,0.4,0.7,0.5c0.1,0.1,0.2,0.2,0.3,0.2c0.1,0.1,0.6,0.5,0.1,0.1c-0.5-0.4,0,0,0.1,0.1c0.1,0.1,0.2,0.2,0.3,0.3
			c0.3,0.2,0.6,0.5,0.9,0.7c1,0.8,1.9,1.7,2.8,2.6c0.9,0.9,1.8,1.9,2.6,2.9c0.5,0.5,0.9,1.1,1.3,1.6c0,0-0.5-0.7-0.2-0.2
			c0.1,0.1,0.2,0.2,0.3,0.4c0.3,0.4,0.5,0.7,0.8,1.1c1.6,2.3,3.1,4.7,4.5,7.1c1.5,2.8,2.9,5.7,4.2,8.6c0.4,0.8,1.4,1.5,2.2,1.7
			c0.9,0.2,2.1,0.1,2.9-0.4c0.8-0.5,1.5-1.3,1.7-2.2c0.2-1,0.1-1.9-0.4-2.9c-5.6-12.6-13.6-25.1-26.3-31.5c-1.8-0.9-3.7-1.7-5.6-2.3
			c-1-0.3-2.2-0.3-3.2-0.3c-1.6-0.1-3.2,1.2-3.6,2.7c-0.1,0.7-0.1,1.3,0,2c0.2,0.8,0.9,1.9,1.7,2.2c4.5,2.1,8.8,4.6,12.8,7.6
			c0.1,0.1,0.3,0.2,0.4,0.3c0.4,0.3-0.6-0.5-0.3-0.2c0.2,0.2,0.5,0.4,0.7,0.6c0.5,0.4,1,0.8,1.6,1.3c0.9,0.8,1.8,1.6,2.7,2.4
			c1.8,1.7,3.5,3.5,5.2,5.4c0.5,0.5,0.9,1.1,1.4,1.6c0.2,0.3,0.4,0.5,0.6,0.8c0.2,0.2,0.5,0.7-0.1-0.2c0.1,0.2,0.2,0.3,0.4,0.5
			c0.9,1.1,1.7,2.3,2.4,3.5c1.9-1.5,3.9-3,5.8-4.5c-3.1-2.9-6.2-5.8-9.2-8.8c-4.2-4-8.4-7.9-12.6-11.9c-0.4-0.3-0.7-0.7-1.1-1
			c-0.9-0.8-2-1.1-3-1.5c-0.9-0.4-1.7-0.7-2.6-1.1s-1.7-0.7-2.6-1.1c-0.7-0.3-1.1-0.4-1.9-0.5c-0.2,0-0.4,0-0.5,0c0,2.5,0,5,0,7.4
			c1.5-0.1,2.9,0,4.4,0.1c-0.3,0-0.7-0.1-1-0.1c2.2,0.3,4.3,0.9,6.3,1.7c-0.3-0.1-0.6-0.2-0.9-0.4c1.8,0.8,3.6,1.7,5.2,2.9
			c0.4,0.3,0.8,0.6,1.2,0.9c0.5,0.4-0.7-0.6,0,0c0.2,0.2,0.4,0.3,0.6,0.5c0.7,0.6,1.5,1.3,2.2,2c0.7,0.7,1.4,1.5,2.1,2.3
			c0.3,0.4,0.6,0.8,0.9,1.2c-0.7-0.9-0.2-0.2,0,0c0.2,0.3,0.4,0.5,0.6,0.8c1.2,1.7,2.3,3.5,3.3,5.4c1.2,2.1,2.2,4.3,3.1,6.5
			c-0.1-0.3-0.2-0.6-0.4-0.9c3.3,7.9,6.1,16.1,7.9,24.5c0.5,2.4,1,4.9,1.3,7.3c0-0.3-0.1-0.7-0.1-1c0.4,3,0.6,5.9,0.7,8.9
			c0,1.9,1.7,3.8,3.7,3.7C345.5,912.1,347.2,910.5,347.2,908.5L347.2,908.5z"/>
	</g>
</g>
<g>
	<g>
		<path fill="#966D32" d="M926.1,367.5c-2.2-14.5-4.4-29.1-4.5-43.9c-0.1-12.6,1.9-25.1,4.8-37.4c0.8-3.3,1.7-6.5,2.7-9.7
			c0.5-1.5,1-3,1.6-4.5c0.1-0.2,0.2-0.5,0.3-0.7c0.1-0.2,0.2-0.5,0.3-0.7c-0.1,0.3-0.1,0.3,0,0c0.3-0.7,0.6-1.4,1-2.1
			c-2.3-0.6-4.6-1.3-6.9-1.9c0.4,3.1,0.7,6.2,1.1,9.3c0,0.2,0,0.5,0.1,0.7c0,0,0,0.1,0,0.1c-0.1-1,0-0.2-0.1,0.2
			c-0.4,1.8-0.8,3.6-1.4,5.3c-1.1,3.5-2.5,6.8-4.3,10.1c2.3,1,4.5,1.9,6.8,2.9c1.9-9,5.8-17.2,10.1-25.2c2-3.7,4-7.5,6.2-11
			c2-3.1,4.3-5.8,7.6-7.5c-0.6,0.2-1.3,0.3-1.9,0.5c0.4,0,0.9-0.1,1.3-0.1c-0.3-2.4-0.7-4.9-1-7.3c-3.3,0.7-6.5,2.6-8.6,5.3
			c1.9,0.3,3.9,0.5,5.8,0.8c-0.1-0.2-0.2-0.4-0.4-0.5c-1.5-2.1-3.9-2.4-5.8-0.8c-1.2,1.1-2.3,2.3-3.2,3.6c-0.3,0.5-0.5,1-0.8,1.5
			c-0.2,0.4,0-0.3,0-0.3c-0.6,0.7-1.1,1.5-1.6,2.2c-1.7,2.4-3.2,4.8-4.6,7.4c-3,5.3-5.4,11-7.3,16.8c-3.9,11.8-5.7,24.2-6.2,36.6
			c-0.5,13.7,0.7,27.3,2.4,40.9c1.6,12.8,3.2,25.9,7.8,38.1c0.7,1.8,1.4,3.7,2.3,5.4c0.3,0.6,0.7,1.1,1.2,1.5c1,1,2.1,1.9,3.2,2.8
			c2.1,1.9,4.2,3.7,6.4,5.6c3.2,2.9,7.6-0.7,5.8-4.5c-7.8-16.7-13.4-34.4-16.9-52.5c-0.3,1.2-0.6,2.4-1,3.6c0.1-0.1,0.1-0.1,0.2-0.2
			c1-0.9,1.3-2.4,1-3.6c-1.1-3.8-1.6-7.6-1.6-11.5c0-1.6-1.1-3.2-2.7-3.6c-1.5-0.4-3.5,0.2-4.2,1.7c-0.5,1.2-1.1,2.4-1.6,3.6
			c-0.4,0.9-0.9,1.8-0.9,2.8c0,1.8,0.6,3.7,0.9,5.4c1.1,6.6,2.5,13.1,4,19.6c3.1,13,7.1,25.8,12,38.2c0.7,1.7,1.4,3.4,2.1,5.1
			c0.4,1,0.8,2,1.2,3c0.4,1,0.7,2.1,1.5,2.8c1.2,1.2,3.5,1.5,5.1,1.9c3.1,0.8,5.9-2.7,4.2-5.5c-8.4-13.7-14.3-28.8-17.7-44.5
			c-1.7-8.2-2.9-16.5-3.8-24.9c-0.9-8.6-1.6-17.2-1.5-25.9c0.1-8.3,1.2-16.4,3.4-24.4c2.1-7.8,4.9-15.4,8.2-22.7
			c3.2-7.2,7-14.1,11.5-20.5c0.3-0.4,0.6-0.8,0.8-1.2c0.1-0.1,0.2-0.3,0.3-0.4c0.4-0.6,0.4-0.5-0.2,0.3c0.1-0.1,0.2-0.3,0.4-0.4
			c0.4-0.5,0.8-0.9,1.3-1.4c1.3-1.3,2.6-2.6,3.9-3.9c3.8-3.7,7.7-7.3,11.7-10.8c1.7-1.5,3.4-3.3,5.3-4.5c-1.1,0.7,0.2-0.1,0.5-0.3
			c0.3-0.2,0.6-0.4,0.9-0.6c0.2-0.2,0.5-0.3,0.7-0.5c0.8-0.5-0.7,0.2-0.3,0.1c-1-2.3-1.9-4.5-2.9-6.8c-10.2,6.2-20.3,12.5-30.5,18.7
			c-1.7,1.1-3.5,2.1-5.2,3.2c-3.9,2.5-7.2,6.4-9.9,10.1c-7,9.5-10.2,21.1-13.3,32.3c-4.1,14.7-2.4,29.8-1.4,44.8
			c1,14.4,4.2,28.6,8.8,42.3c4.7,13.8,10.7,27,17.2,40c3,5.8,5.9,11.8,9.4,17.3c3.3,5.3,7.1,10.2,11.2,14.9
			c8.5,9.7,18.2,18.3,28.3,26.1c10,7.7,20.6,14.7,31.6,21c2.5,1.4,5,2.8,7.5,4.2c4.2,2.2,7.9-3.9,3.8-6.4
			c-12.7-7.7-25.2-15.8-37-24.8c-0.2-0.2-0.4-0.3-0.7-0.5c0.6,0.5-0.2-0.2-0.3-0.2c-0.4-0.3-0.8-0.7-1.2-1c-0.9-0.7-1.7-1.4-2.6-2.1
			c-1.9-1.6-3.8-3.3-5.6-5.1c-4.8-4.6-9.2-9.5-13.4-14.6c-8.7-10.7-16.1-22.4-22-34.8c-3.6-7.7-7.2-15.4-10.8-23
			c-0.4-0.9-0.8-1.8-1.2-2.7c-0.1-0.2-0.6-1.3-0.2-0.3c0-0.1-0.1-0.1-0.1-0.2c-0.3-0.7-0.6-1.4-0.9-2.1c-0.6-1.4-1.2-2.9-1.8-4.3
			c-0.8-1.9-2.5-3.2-4.6-2.6c-1.9,0.5-3.2,2.7-2.6,4.6c2.8,8.6,5.2,17.3,8.6,25.7c3.3,8.2,8,15.8,12.5,23.3c2.7,4.5,5.4,9,8.1,13.5
			c1,1.7,3.3,2.4,5.1,1.3c1.8-1.1,2.2-3.3,1.3-5.1c-3.9-8.1-7.8-16.2-11.7-24.3c-6.2-12.8-12.4-25.6-18.5-38.5
			c-1.4-3-2.9-5.9-4.3-8.9c-0.9-1.8-3.5-2.3-5.1-1.3c-1.8,1.1-2.2,3.3-1.3,5.1c3.9,8.1,7.8,16.2,11.7,24.3
			c6.2,12.8,12.4,25.6,18.5,38.5c1.4,3,2.9,5.9,4.3,8.9c2.1-1.3,4.3-2.5,6.4-3.8c-4.6-7.7-9.3-15.3-13.8-23
			c-2.1-3.7-4.2-7.4-5.8-11.4c-1.6-3.8-2.8-7.7-4.1-11.7c-1.6-4.9-3.2-9.8-4.8-14.8c-2.4,0.7-4.8,1.3-7.2,2
			c4.1,9.9,8.7,19.5,13.3,29.2c3.1,6.6,6.3,13.2,10,19.5c3.6,6,7.5,11.7,11.7,17.2c7.5,9.7,15.8,18.9,25.4,26.6
			c7.9,6.3,16.2,12,24.6,17.5c5.3,3.5,10.7,6.9,16.1,10.2c1.3-2.1,2.5-4.3,3.8-6.4c-21.8-11.6-42.4-25.7-59.7-43.3
			c-2.2-2.2-4.3-4.5-6.3-6.8c-0.9-1-1.8-2.1-2.7-3.2c-1-1.2-1.7-2-2.4-3.1c-3.6-4.7-6.6-9.7-9.4-15c-6.5-12.3-12.7-24.7-17.8-37.7
			c-5.1-13-9.1-26.6-11.1-40.4c-1-6.8-1.4-14-1.9-21c-0.5-7.4-0.8-14.9,0-22.3c0.7-5.9,2.5-11.8,4.2-17.5c1.7-5.6,3.4-10.6,6-15.6
			c2.8-5.4,6-9.7,10.6-13.7c0.2-0.2,1.5-1.1,0.4-0.4c0,0,0.1,0,0.1-0.1c0.2-0.1,0.4-0.2,0.5-0.3c0.7-0.5,1.5-0.9,2.2-1.4
			c10.8-6.6,21.6-13.3,32.4-19.9c0.3-0.2,0.5-0.3,0.8-0.5c3.5-2.1,1.3-8.1-2.9-6.8c-1.3,0.4-2.4,1.2-3.5,2c-1.7,1.3-3.4,2.7-5.1,4.1
			c-3.8,3.2-7.4,6.5-11,9.9c-2.6,2.5-5.4,4.9-7.7,7.7c-2,2.3-3.7,5-5.4,7.7c-2.2,3.5-4.2,7-6,10.7c-7.7,15.4-13.6,32.1-14.9,49.3
			c-0.7,8.8-0.3,17.6,0.5,26.4c0.8,9,1.9,18,3.5,26.9c2.9,16.6,8.4,32.7,16.6,47.5c1,1.8,2,3.5,3,5.2c1.4-1.8,2.8-3.6,4.2-5.5
			c-1.2-0.3-2.3-0.6-3.5-0.9c0.7,0.6,1.5,1.1,2.2,1.7c-7.5-17.5-13.3-35.8-17.2-54.4c-1.1-5.4-2.1-10.8-3-16.3
			c-0.1,1-0.2,1.9-0.4,2.9c0.7-1.5,1.3-3,2-4.5c-2.3-0.6-4.6-1.3-6.9-1.9c0,4.5,0.7,9.1,1.9,13.4c0.3-1.2,0.6-2.4,1-3.6
			c-2.3,2-0.8,5.6-0.3,8.2c0.5,2.4,1.1,4.9,1.7,7.3c1.2,4.8,2.5,9.6,4,14.4c3.1,9.6,6.8,19.1,11.1,28.2c1.9-1.5,3.9-3,5.8-4.5
			c-1.7-1.5-3.4-3-5.2-4.5c-1.1-1-2.2-2-3.4-3c-0.3-0.3-0.7-0.6-1-0.9c-0.1-0.1-0.2-0.2-0.3-0.2c0,0,0,0-0.1-0.1
			c0.6,0.8,0.2,0,0.2-0.2c-0.3-1.2-1.1-2.5-1.5-3.7c-0.6-1.5-1.1-3.1-1.6-4.6c-0.9-3-1.7-6-2.3-9c-1.2-5.8-2.1-11.7-2.9-17.5
			c-3.3-25-5.4-50.9,1.6-75.3c1.7-6.1,3.9-11.8,6.8-17.4c1.5-2.8,3.1-5.6,4.9-8.3c0.9-1.3,2-2.6,2.8-3.9c-0.1,0.2,0.3-0.8,0.4-1
			c-0.8,1.2,0.7-0.4,0.2,0c0.7-0.6,1.3-1.4,2-2c-1.9-0.3-3.9-0.5-5.8-0.8c0.1,0.2,0.2,0.4,0.4,0.5c1.2,1.7,4.2,2.8,5.8,0.8
			c1.5-2,3-2.9,5.3-3.4c1.8-0.4,2.9-2.4,2.7-4.1c-0.3-1.7-1.8-3.4-3.7-3.2c-1.5,0.2-2.8,0.4-4.1,1.1c-1.7,1-3.2,2.2-4.6,3.6
			c-2.6,2.6-4.6,5.7-6.4,8.8c-4.1,7.1-8,14.4-11.2,22c-1.8,4.3-3.3,8.8-4.3,13.4c-0.4,1.8,0.4,3.7,2.2,4.4c1.7,0.7,3.7,0.1,4.6-1.5
			c2-3.6,3.6-7.3,4.9-11.2c0.6-1.9,1.1-3.8,1.6-5.8c0.2-1,0.5-1.9,0.4-2.9c-0.4-3.2-0.7-6.4-1.1-9.6c-0.2-1.7-1-3.1-2.7-3.6
			c-1.5-0.4-3.5,0.2-4.2,1.7c-5.2,10.8-7.6,22.9-9.5,34.7c-1.1,6.9-1.9,13.9-2,21c-0.1,7.7,0.4,15.4,1.2,23c0.9,8.7,2.2,17.4,3.5,26
			c0.3,2,2.8,3.1,4.6,2.6C925.6,371.5,926.4,369.5,926.1,367.5z"/>
	</g>
</g>
<g>
	<g>
		<path fill="#966D32" d="M928.7,400c4.2,10.7,9.5,20.9,15.9,30.4c1.8,2.6,3.6,5.2,5.5,7.7c0.6,0.8,1.2,1.4,2.2,1.7
			c0.9,0.2,2.1,0.1,2.9-0.4c0.8-0.5,1.5-1.3,1.7-2.2c0.2-0.9,0.2-2.1-0.4-2.9c-6.3-8.2-11.7-17-16.3-26.3c-1.3-2.6-2.5-5.3-3.6-8
			c0.1,0.3,0.2,0.6,0.4,0.9c-0.4-1-0.8-1.9-1.2-2.9c-0.4-0.9-0.8-1.7-1.7-2.2c-0.8-0.5-2-0.7-2.9-0.4c-0.9,0.3-1.8,0.8-2.2,1.7
			C928.6,397.9,928.3,399.1,928.7,400L928.7,400z"/>
	</g>
</g>
<g>
	<g>
		<path fill="#966D32" d="M939.3,410.9c1.2,2.4,2.2,4.8,3.3,7.2c-0.1-0.3-0.2-0.6-0.4-0.9c1.1,2.7,2.2,5.5,3,8.3
			c0.6,1.9,2.6,3.2,4.6,2.6c1.9-0.6,3.2-2.6,2.6-4.6c-1.7-5.6-4.1-11.1-6.7-16.4c-0.9-1.8-3.5-2.4-5.1-1.3
			C938.9,406.9,938.4,409,939.3,410.9L939.3,410.9z"/>
	</g>
</g>
<g>
	<g>
		<path fill="#966D32" d="M967.7,458.3c6.8,7.4,14.4,13.9,22.5,19.8c7.9,5.8,16.2,11,24.7,15.9c4.8,2.7,9.6,5.4,14.5,8
			c1.7,0.9,4.1,0.5,5.1-1.3c0.9-1.7,0.5-4.1-1.3-5.1c-8.6-4.6-17.1-9.3-25.4-14.5c-4.1-2.6-8.2-5.3-12.2-8.2c-1-0.7-1.9-1.4-2.9-2.1
			c-0.5-0.3-0.9-0.7-1.4-1c-0.2-0.2-0.5-0.4-0.7-0.5c0.9,0.7,0,0-0.3-0.2c-1.9-1.5-3.8-3-5.6-4.6c-4.1-3.5-8.1-7.3-11.8-11.3
			c-1.3-1.4-3.9-1.4-5.3,0C966.2,454.6,966.2,456.8,967.7,458.3L967.7,458.3z"/>
	</g>
</g>
<g>
	<g>
		<path fill="#966D32" d="M694.3,709.8c28-4.5,56.4-6,84.7-4.4c28.4,1.6,56.6,6.2,84.1,13.8c13.6,3.8,27.1,8.3,40.2,13.5
			c13.5,5.4,26.8,11.3,40.3,16.7c13.2,5.3,26.5,9.9,40.4,13c13.5,3,27.4,4.7,41.3,5.1c27.5,0.7,55.3-3.8,81-13.4
			c3.3-1.2,6.6-2.6,9.9-4c1.8-0.8,2.3-3.5,1.3-5.1c-1.1-1.9-3.2-2.1-5.1-1.3c-25.1,10.7-52.4,16.2-79.7,16.4
			c-27.9,0.2-54.9-5.5-80.9-15.5c-13.5-5.2-26.6-11-39.9-16.5c-13.3-5.5-26.7-10.3-40.5-14.4c-27.2-8-55.2-13.1-83.5-15.3
			c-28.3-2.2-56.7-1.3-84.8,2.5c-3.6,0.5-7.1,1-10.7,1.6c-2,0.3-3.1,2.8-2.6,4.6C690.3,709.3,692.3,710.1,694.3,709.8L694.3,709.8z"
			/>
	</g>
</g>
<g>
	<g>
		<path fill="#C97F27" d="M1245,290.5c1.5,1.5,2.9,3,4.2,4.7c-0.6-0.7,0.4,0.5,0.5,0.7c0.3,0.4,0.6,0.8,0.9,1.2
			c0.6,0.9,1.2,1.8,1.8,2.7c1,1.7,2,3.5,2.9,5.2c0.4,0.9,0.9,1.8,1.3,2.7c0.2,0.5,0.4,0.9,0.6,1.4c0.1,0.1,0.4,1.1,0.1,0.2
			c0.1,0.3,0.2,0.6,0.3,0.8c3.2,7.9,5.6,16.1,8.6,24c3,8.1,6.6,16,12,22.8c6,7.6,14.2,12.7,23.1,16.2c8.9,3.5,18.3,5.3,27.7,7.2
			c10.8,2.2,21.4,4.7,32,7.9c10.8,3.2,21.5,6.9,31.9,11.2c4.8,1.9,9.6,4,14.6,6.3c4.2,2,8.3,4,12.4,6.2c4.2,2.3,8.3,4.7,12.2,7.4
			c1.9,1.3,3.7,2.6,5.5,3.9c0.3,0.2,0.5,0.4,0.8,0.6c-0.5-0.4-0.1,0,0,0c0.4,0.3,0.9,0.7,1.3,1c1,0.8,1.9,1.6,2.8,2.4
			c3.4,3,6.6,6.2,9.5,9.6c0.4,0.4,0.7,0.8,1,1.3c0.2,0.3,0.4,0.5,0.6,0.8c0.4,0.6,0.1,0.1,0,0c0.7,1,1.4,1.9,2.1,2.9
			c1.3,1.9,2.5,3.9,3.6,5.9c0.5,0.9,1,1.8,1.4,2.8c0.2,0.5,0.5,1,0.7,1.5c0.1,0.3,0.2,0.5,0.3,0.8c0.5,1-0.3-0.7,0.1,0.3
			c0.7,1.8,2.5,3.3,4.6,2.6c1.7-0.6,3.4-2.7,2.6-4.6c-3.7-8.9-9-16.8-15.7-23.7c-6.6-6.8-14.3-12.6-22.3-17.5
			c-8.2-5.1-16.9-9.3-25.7-13.3c-10.6-4.7-21.3-8.9-32.3-12.5c-10.7-3.5-21.6-6.6-32.6-9.1c-9.7-2.2-19.5-3.7-29-6.5
			c-2.3-0.6-4.5-1.4-6.7-2.2c-0.5-0.2-1.1-0.4-1.6-0.6c-0.3-0.1-0.6-0.3-0.9-0.4c-0.1,0-0.7-0.3-0.1,0c-1.1-0.5-2.3-1-3.4-1.6
			c-2.1-1.1-4.2-2.2-6.1-3.6c-0.5-0.3-0.9-0.6-1.4-1c-0.2-0.1-0.4-0.3-0.5-0.4c-0.9-0.7,0.5,0.5-0.3-0.3c-0.9-0.8-1.8-1.5-2.7-2.4
			c-1.5-1.4-2.9-2.9-4.2-4.5c-0.1-0.1-0.7-0.9-0.1-0.2c-0.1-0.2-0.2-0.3-0.4-0.5c-0.3-0.4-0.6-0.8-0.9-1.2c-0.6-0.9-1.2-1.8-1.8-2.7
			c-1.1-1.8-2.1-3.6-3-5.5c-0.4-0.9-0.9-1.8-1.3-2.7c-0.2-0.5-0.4-0.9-0.6-1.4c-0.1-0.2-0.2-0.4-0.2-0.6c0.4,0.8-0.1-0.2-0.2-0.4
			c-6.5-15.9-9.8-33.4-20.7-47.2c-1.3-1.6-2.6-3.1-4.1-4.5c-1.4-1.4-3.9-1.5-5.3,0C1243.7,286.7,1243.5,289,1245,290.5L1245,290.5z"
			/>
	</g>
</g>
<g>
	<g>
		<path fill="#C97F27" d="M1263.1,325.1c2.6,5.5,5.2,11,7.9,16.5c2.5,5.2,5.3,10.2,9.2,14.5c3.9,4.4,9,7.8,14,10.8
			c5,3.1,10.2,5.7,15.7,7.9c5.9,2.4,11.9,4.4,18.1,5.7c1.9,0.4,4.1-0.6,4.6-2.6c0.4-1.9-0.6-4.1-2.6-4.6c-6.3-1.4-12.5-3.4-18.5-5.9
			c0.3,0.1,0.6,0.2,0.9,0.4c-3.9-1.7-7.8-3.6-11.5-5.7c-1.9-1.1-3.7-2.2-5.5-3.3c-0.9-0.6-1.8-1.2-2.7-1.8c-0.4-0.3-0.9-0.6-1.3-0.9
			c-0.2-0.2-0.4-0.3-0.6-0.5c-0.1-0.1-0.2-0.1-0.3-0.2c-0.4-0.3,0.6,0.5,0.1,0.1c-1.7-1.4-3.3-2.8-4.8-4.4c-0.3-0.4-0.7-0.8-1-1.1
			c-0.1-0.2-0.3-0.3-0.4-0.5c-0.1-0.1-0.2-0.2-0.3-0.3c-0.4-0.5,0.4,0.5,0.1,0.2c-0.6-0.8-1.2-1.7-1.8-2.6c-2.3-3.5-4.1-7.2-5.9-11
			c-2.3-4.8-4.6-9.6-6.9-14.4c-0.8-1.8-3.5-2.4-5.1-1.3C1262.6,321.2,1262.2,323.3,1263.1,325.1L1263.1,325.1z"/>
	</g>
</g>
<g>
	<g>
		<path fill="#C97F27" d="M1386.1,396.7c6.6,3.2,13,6.8,19.4,10.5c6.1,3.6,12.2,7.2,18.2,11c2.9,1.8,5.7,3.7,8.5,5.6
			c1.4,1,2.8,1.9,4.1,2.9c0.7,0.5,1.3,1,2,1.5c0.2,0.1,0.4,0.3,0.5,0.4c0.6,0.5-0.7-0.5,0,0c0.4,0.3,0.7,0.6,1.1,0.8
			c5.2,4.1,10,8.6,14.3,13.7c0.6,0.7,1.1,1.4,1.7,2.1c0.1,0.1,0.2,0.3,0.3,0.4c0.2,0.2,0.1,0.1-0.3-0.3c0.1,0.1,0.2,0.2,0.2,0.3
			c0.3,0.4,0.5,0.7,0.8,1.1c1,1.4,2,2.8,2.9,4.3c1.9,3,3.5,6.1,4.9,9.4c-0.1-0.3-0.2-0.6-0.4-0.9c1.9,4.4,3.2,9.1,3.8,13.8
			c0-0.3-0.1-0.7-0.1-1c0,0.2,0.1,0.4,0.1,0.6c0.1,1,0.3,1.9,1.1,2.6c0.6,0.6,1.7,1.1,2.6,1.1c1,0,2-0.4,2.6-1.1
			c0.6-0.7,1.2-1.7,1.1-2.6c-0.5-3.9-1.3-7.6-2.5-11.3c-1.2-3.7-2.8-7.3-4.7-10.7c-3.6-6.6-8.3-12.6-13.6-18
			c-5.8-5.8-12.3-10.9-19.1-15.6c-6.7-4.6-13.6-8.8-20.6-12.9c-7.3-4.4-14.7-8.7-22.4-12.5c-1-0.5-1.9-1-2.9-1.4
			c-0.9-0.4-1.9-0.7-2.9-0.4c-0.9,0.2-1.8,0.9-2.2,1.7C1383.9,393.2,1384.3,395.8,1386.1,396.7L1386.1,396.7z"/>
	</g>
</g>
<g>
	<g>
		<path fill="#C97F27" d="M1424.2,415.9c0.3,0,0.6,0,0.9,0.1c-0.3,0-0.7-0.1-1-0.1c1.2,0.2,2.4,0.5,3.5,1c-0.3-0.1-0.6-0.2-0.9-0.4
			c0.7,0.3,1.4,0.7,2.1,1.1c0.2,0.1,0.4,0.3,0.5,0.4c-0.8-0.5-0.3-0.2-0.1,0c0.3,0.2,0.6,0.5,0.8,0.7c1.3,1.2,2.6,2.5,3.9,3.7
			c2.6,2.5,5.3,5.1,7.9,7.6c1.4,1.4,3.9,1.5,5.3,0c1.3-1.5,1.5-3.8,0-5.3c-3.4-3.3-6.8-6.5-10.1-9.8c-1.7-1.6-3.4-3.2-5.4-4.4
			c-2.3-1.3-4.8-1.9-7.4-2.1c-1.9-0.1-3.8,1.8-3.7,3.7C1420.6,414.3,1422.1,415.8,1424.2,415.9L1424.2,415.9z"/>
	</g>
</g>
<g>
	<g>
		<path fill="#C97F27" d="M1372.6,391.7c13.3,6.6,26.6,13.2,39.9,19.8c3.7,1.8,7.4,3.7,11.1,5.5c0.9,0.4,1.9,0.6,2.9,0.4
			c0.9-0.2,1.8-0.9,2.2-1.7c0.9-1.7,0.5-4.2-1.3-5.1c-13.3-6.6-26.6-13.2-39.9-19.8c-3.7-1.9-7.5-3.7-11.2-5.6
			c-0.9-0.4-1.9-0.6-2.9-0.4c-0.9,0.2-1.8,0.9-2.2,1.7C1370.4,388.3,1370.7,390.8,1372.6,391.7L1372.6,391.7z"/>
	</g>
</g>
<g>
	<g>
		<path fill="#966D32" d="M886.7,725.7c12.4,4.9,24.8,9.9,37.3,14.4c12.4,4.5,25,8.6,37.9,11.9c13.1,3.4,26.4,5.5,39.7,7.4
			c13.5,1.9,27,3.7,40.6,4.3c13.5,0.6,27.2,0,40.5-2.7c1.6-0.3,3.2-0.7,4.8-1.1c1.9-0.5,3.2-2.7,2.6-4.6c-0.6-2-2.5-3.1-4.6-2.6
			c-3.2,0.8-6.5,1.5-9.8,2c-0.7,0.1-1.5,0.2-2.2,0.3c-0.2,0-0.4,0.1-0.6,0.1c0,0-0.6,0.1-0.3,0c0.4-0.1-0.4,0-0.4,0.1
			c-0.2,0-0.5,0.1-0.7,0.1c-1.6,0.2-3.2,0.4-4.9,0.5c-6.6,0.6-13.2,0.7-19.8,0.6c-6.7-0.2-13.3-0.6-19.9-1.3
			c-3.3-0.3-6.6-0.7-9.9-1.1c-1.7-0.2-3.4-0.4-5.1-0.6c-0.8-0.1-1.5-0.2-2.3-0.3c0.6,0.1-0.6-0.1-0.7-0.1c-0.4-0.1-0.9-0.1-1.3-0.2
			c-13.3-1.8-26.5-3.7-39.5-6.9c-12.8-3.1-25.4-7-37.8-11.4c-12.5-4.4-24.7-9.2-37-14.1c-1.5-0.6-3-1.2-4.6-1.8
			c-1.8-0.7-4.2,0.8-4.6,2.6C883.6,723.3,884.8,725,886.7,725.7L886.7,725.7z"/>
	</g>
</g>
<g>
	<g>
		<path fill="#966D32" d="M952.7,751.2c11.6,3.8,23.4,6.9,35.3,9.2c12.2,2.4,24.5,4.1,36.9,5.1c6.8,0.5,13.7,0.8,20.5,0.9
			c1.9,0,3.8-1.7,3.7-3.7c-0.1-2-1.6-3.7-3.7-3.7c-9.7-0.1-19.4-0.7-29.1-1.7c-2.8-0.3-5.5-0.6-8.3-1c0.3,0,0.7,0.1,1,0.1
			c-14.4-1.9-28.6-4.9-42.6-8.8c-3.9-1.1-7.9-2.3-11.8-3.6c-1.9-0.6-4.1,0.7-4.6,2.6C949.7,748.6,950.7,750.5,952.7,751.2
			L952.7,751.2z"/>
	</g>
</g>
<g>
	<g>
		<path fill="#966D32" d="M995,759.7c7,1.8,14.2,1.6,21.3,2.6c-0.3,0-0.7-0.1-1-0.1c2.8,0.4,5.6,1,8.2,1.9c0.9,0.3,2.1,0.1,2.9-0.4
			c0.8-0.5,1.5-1.3,1.7-2.2c0.5-2.1-0.6-3.9-2.6-4.6c-7.7-2.8-16-2.4-24-3.5c0.3,0,0.7,0.1,1,0.1c-1.9-0.3-3.7-0.6-5.5-1.1
			c-1.9-0.5-4.1,0.6-4.6,2.6C992,757.1,993,759.2,995,759.7L995,759.7z"/>
	</g>
</g>
<g>
	<g>
		<path fill="#966D32" d="M876.2,723c4.9,0.9,9.6,2.2,14.2,4.1c0.8,0.3,2.1,0.1,2.9-0.4c0.8-0.5,1.5-1.3,1.7-2.2
			c0.2-1,0.2-2-0.4-2.9c-0.6-0.9-1.3-1.3-2.2-1.7c-4.6-1.8-9.3-3.2-14.2-4.1c-1-0.2-2-0.2-2.9,0.4c-0.8,0.5-1.5,1.3-1.7,2.2
			C873.2,720.3,874.2,722.6,876.2,723L876.2,723z"/>
	</g>
</g>
<g>
	<g>
		<path fill="#966D32" d="M888.7,725.9c12.7,5.5,25.7,10.3,38.9,14.4c13,4.1,26.2,7.5,39.6,10.2c13.7,2.8,27.5,4.7,41.4,6.2
			c14.2,1.5,28.3,2.9,42.5,3.6c14.3,0.7,28.7,0.4,42.9-1.8c1.7-0.3,3.4-0.6,5.2-0.9c1.9-0.4,3.2-2.8,2.6-4.6c-0.7-2-2.5-3-4.6-2.6
			c-3.5,0.7-6.7,1.1-9.7,1.5c-3.5,0.4-6.9,0.7-10.4,0.9c-7,0.4-13.9,0.4-20.9,0.2c-14.1-0.5-28.1-1.9-42.1-3.3
			c-3.5-0.4-7-0.7-10.6-1.1c-1.8-0.2-3.5-0.4-5.3-0.6c-0.8-0.1-1.5-0.2-2.3-0.3c-0.4-0.1-0.9-0.1-1.3-0.2c0,0-0.6-0.1-0.3,0
			c0.3,0-0.4-0.1-0.5-0.1c-6.7-0.9-13.3-2-19.9-3.2c-13.3-2.5-26.4-5.7-39.3-9.6c-12.9-3.8-25.6-8.3-38-13.5c-1.7-0.7-2.4-1-4.1-1.7
			c-1.8-0.8-4.1-0.6-5.1,1.3C886.5,722.4,886.8,725,888.7,725.9L888.7,725.9z"/>
	</g>
</g>
<g>
	<g>
		<path fill="#966D32" d="M985.1,756.4c9.6,0.9,19.2,1.8,28.8,2.7c9.6,0.9,19.3,1.8,28.9,2.7c5.4,0.5,10.8,1,16.3,1.5
			c0.9,0.1,2-0.5,2.6-1.1c0.6-0.6,1.1-1.7,1.1-2.6c0-1-0.4-2-1.1-2.6c-0.8-0.7-1.6-1-2.6-1.1c-9.6-0.9-19.2-1.8-28.8-2.7
			c-9.6-0.9-19.3-1.8-28.9-2.7c-5.4-0.5-10.8-1-16.3-1.5c-0.9-0.1-2,0.5-2.6,1.1c-0.6,0.6-1.1,1.7-1.1,2.6c0,1,0.4,2,1.1,2.6
			C983.2,756,984.1,756.3,985.1,756.4L985.1,756.4z"/>
	</g>
</g>
<g>
	<g>
		<path fill="#966D32" d="M303.2,846.4c0.3,0.1,0.7,0.3,1,0.4c-0.3-0.1-0.6-0.2-0.9-0.4c2.8,1.2,5.5,2.6,7.9,4.4
			c0.6,0.4,1.2,0.9,1.7,1.3c-1-0.7,0.1,0.1,0.3,0.2c0.3,0.3,0.7,0.6,1,0.8c1.2,1,2.4,2.2,3.5,3.3c2.1,2.2,4.2,4.6,6.2,6.9
			c1,1.1,2,2.3,2.9,3.5c0.2,0.3,0.5,0.6,0.7,0.8c0.1,0.1,0.2,0.3,0.3,0.4c0.3,0.4-0.6-0.8-0.1-0.2c0.5,0.6,0.9,1.3,1.4,1.9
			c1.9,2.7,3.7,5.6,5,8.7c-0.1-0.3-0.2-0.6-0.4-0.9c0.2,0.4,0.3,0.8,0.5,1.2c0.4,0.9,0.8,1.7,1.7,2.2c0.8,0.5,2,0.7,2.9,0.4
			c1.8-0.6,3.3-2.6,2.6-4.6c-2.5-6.6-6.6-12.2-11.1-17.5c-4.5-5.3-9.1-10.6-14.8-14.7c-3.2-2.3-6.7-4.1-10.4-5.5
			c-0.8-0.3-2.1-0.1-2.9,0.4c-0.8,0.5-1.5,1.3-1.7,2.2c-0.2,1-0.2,2,0.4,2.9C301.5,845.5,302.2,846,303.2,846.4L303.2,846.4z"/>
	</g>
</g>
<g>
	<g>
		<path fill="#966D32" d="M302.5,845.7c0.1,0.1,0.3,0.1,0.4,0.2c-0.3-0.1-0.6-0.2-0.9-0.4c1.7,0.7,3.3,1.8,4.8,2.9
			c0.7,0.5,1.3,1,2,1.5c0.2,0.1,0.3,0.2,0.5,0.4c0,0-0.7-0.5-0.4-0.3c0.1,0.1,0.2,0.1,0.2,0.2c0.3,0.3,0.7,0.5,1,0.8
			c2.6,2.1,5.1,4.4,7.4,6.8c1.1,1.2,2.3,2.4,3.3,3.6c0.6,0.6,1.1,1.3,1.7,2c0.2,0.3,0.5,0.6,0.7,0.9c0.1,0.2,0.2,0.3,0.4,0.5
			c0.2,0.3-0.3-0.4-0.3-0.4c0.1,0.1,0.2,0.2,0.2,0.3c2,2.6,3.9,5.4,5.6,8.3c1.9,3.3,3.6,6.7,5.1,10.1c-0.1-0.3-0.2-0.6-0.4-0.9
			c1.2,2.7,2.2,5.5,3,8.4c0.6,1.9,2.6,3.2,4.6,2.6c1.9-0.6,3.2-2.6,2.6-4.6c-2.4-7.9-5.9-15.6-10.5-22.5c-4.5-6.9-10-13.3-16.3-18.7
			c-1.9-1.6-3.9-3.2-5.9-4.7c-2.2-1.6-4.5-3.1-7.1-4.1c-0.8-0.3-2.1-0.1-2.9,0.4c-0.8,0.5-1.5,1.3-1.7,2.2c-0.2,1-0.2,2,0.4,2.9
			C300.8,844.8,301.6,845.3,302.5,845.7L302.5,845.7z"/>
	</g>
</g>
<g>
	<g>
		<path fill="#C97F27" d="M1257.7,310.5c3.6,6.2,6.4,12.9,9.6,19.4c2.9,5.9,6.3,11.4,10.4,16.6c7.5,9.6,16.9,17.8,27.3,24.1
			c6,3.6,12.4,6.6,19,9c1.8,0.7,4.2-0.7,4.6-2.6c0.5-2.1-0.6-3.9-2.6-4.6c-1.6-0.6-3.3-1.2-4.9-1.9c0.3,0.1,0.6,0.2,0.9,0.4
			c-5.2-2.2-10.1-4.8-14.9-7.7c-2.4-1.5-4.7-3.1-6.9-4.8c-0.2-0.1-0.3-0.2-0.5-0.4c-0.1-0.1-0.6-0.5-0.1-0.1s0,0-0.1-0.1
			c-0.2-0.1-0.3-0.2-0.5-0.4c-0.6-0.4-1.1-0.9-1.7-1.3c-1-0.9-2.1-1.8-3.1-2.7c-2.1-1.9-4.1-3.8-6-5.9c-1-1-1.9-2.1-2.8-3.2
			c-0.4-0.5-0.8-1-1.2-1.5c-0.2-0.3-0.4-0.5-0.6-0.8c-0.2-0.2-1-1.3-0.3-0.3c-3.5-4.7-6.6-9.6-9.3-14.9c-3.4-6.7-6.2-13.7-10-20.2
			c-1-1.7-3.4-2.4-5.1-1.3C1257.3,306.5,1256.7,308.7,1257.7,310.5L1257.7,310.5z"/>
	</g>
</g>
<g>
	<g>
		<path fill="#C97F27" d="M1275.9,346.3c0,0-0.6-0.5-0.4-0.3C1275.7,346.1,1275.8,346.2,1275.9,346.3c0.1,0.1,0.2,0.3,0.4,0.4
			c0.3,0.3,0.6,0.7,0.9,1c0.5,0.6-0.4-0.5,0,0c0.1,0.2,0.2,0.3,0.4,0.5c0.3,0.4,0.5,0.8,0.8,1.2c1.2,1.8,2.3,3.5,3.6,5.2
			c2.3,3,4.9,5.7,7.8,8.1c1.9,1.5,3.8,3,5.8,4.3c1.6,1,4.2,0.4,5.1-1.3c1-1.8,0.4-4-1.3-5.1c-0.8-0.5-1.6-1-2.3-1.6
			c-0.4-0.3-0.7-0.5-1.1-0.8c-0.1-0.1-0.2-0.1-0.2-0.2c-0.4-0.3,0.6,0.5,0.3,0.2c-0.2-0.2-0.4-0.3-0.6-0.5c-1.5-1.2-2.9-2.5-4.2-3.8
			c-1.3-1.3-2.6-2.8-3.7-4.2c-0.1-0.2-0.4-0.6,0.2,0.3c-0.1-0.1-0.1-0.2-0.2-0.2c-0.1-0.2-0.3-0.3-0.4-0.5c-0.3-0.4-0.6-0.8-0.8-1.2
			c-0.5-0.8-1-1.5-1.5-2.3c-0.7-1.1-1.5-2.1-2.3-3.1c-0.8-1-1.8-1.8-2.8-2.6c-0.7-0.5-2-0.6-2.9-0.4c-0.9,0.2-1.8,0.9-2.2,1.7
			c-0.5,0.9-0.7,1.9-0.4,2.9C1274.5,345,1275.1,345.6,1275.9,346.3L1275.9,346.3z"/>
	</g>
</g>
<g>
	<g>
		<path fill="#C97F27" d="M1368.1,390.1c7.3,4.3,14.7,8.6,22.3,12.4c7.4,3.7,15,7.2,22,11.7c3.6,2.3,7,4.8,10.4,7.3
			c3.6,2.6,7.1,5.1,10.7,7.7c1.6,1.2,3.2,2.3,4.8,3.5c0.8,0.6,1.7,1.2,2.5,1.8c0.4,0.3,0.7,0.6,1.1,0.8c0.3,0.2-0.3-0.2-0.3-0.2
			c0.1,0.1,0.2,0.2,0.4,0.3c0.2,0.2,0.4,0.3,0.6,0.5c3.1,2.5,6.2,5.1,9,8c1.4,1.4,2.7,2.9,4,4.4c0.7,0.8,1.3,1.6,1.9,2.4
			c0.3,0.3-0.2-0.3-0.2-0.3c0.1,0.1,0.1,0.2,0.2,0.3c0.1,0.2,0.3,0.4,0.4,0.5c0.3,0.4,0.6,0.9,1,1.3c2.4,3.2,4.6,6.5,6.8,9.9
			c0.5,0.8,1,1.6,1.4,2.5c-0.1-0.3-0.2-0.6-0.4-0.9c0.3,0.7,0.5,1.3,0.6,2c0-0.3-0.1-0.7-0.1-1c0.1,0.5,0.1,1,0,1.4
			c0-0.3,0.1-0.7,0.1-1c0,0.3-0.1,0.5-0.2,0.8c-0.6,1.9,0.7,4.1,2.6,4.6c2,0.5,4-0.6,4.6-2.6c1.5-4.9-1.9-9.3-4.4-13.1
			c-2.5-3.7-5.1-7.4-7.9-10.9c-2.6-3.3-5.5-6.3-8.6-9.2c-3.3-3-6.9-5.7-10.5-8.4c-7.2-5.3-14.5-10.5-21.8-15.6
			c-3.6-2.5-7.3-4.9-11.1-7c-3.8-2.1-7.8-4-11.7-6c-8-3.9-15.7-8.2-23.3-12.7c-1-0.6-2-1.1-2.9-1.7c-1.7-1-4.2-0.4-5.1,1.3
			C1365.8,386.8,1366.3,389,1368.1,390.1L1368.1,390.1z"/>
	</g>
</g>
<g>
	<g>
		<path fill="#C97F27" d="M1423.5,419.2c0.2,0,0.4,0,0.7,0.1c-0.3,0-0.7-0.1-1-0.1c0.7,0.1,1.4,0.3,2.1,0.6
			c-0.3-0.1-0.6-0.2-0.9-0.4c2,0.9,3.9,2.2,5.8,3.4c1.9,1.3,3.8,2.6,5.7,4c0.5,0.3,0.9,0.7,1.4,1c0.2,0.2,0.5,0.4,0.7,0.6
			c0.6,0.4-0.7-0.5,0.1,0c0.9,0.7,1.8,1.4,2.7,2.1c1.8,1.5,3.5,3,5.3,4.6c0.5-2.1,1.1-4.1,1.6-6.2c-0.1,0.1-0.2,0.1-0.4,0.1
			c0.3,0,0.7-0.1,1-0.1c-0.1,0-0.2,0-0.4,0c0.3,0,0.7,0.1,1,0.1c-0.2,0-0.3-0.1-0.5-0.1c0.3,0.1,0.6,0.2,0.9,0.4
			c-0.1,0-0.2-0.1-0.3-0.2c-0.3-0.2-0.2-0.1,0.3,0.2c-0.1-0.2-0.4-0.4-0.6-0.6c-0.1-0.2-0.3-0.3-0.4-0.5c-0.1-0.1-0.2-0.2-0.3-0.3
			c0.4,0.5,0.4,0.5,0.2,0.2c-0.7-0.9-1.3-1.8-2-2.7c-0.7-1-1.5-2-2.4-2.9c-0.9-0.9-1.8-1.7-2.9-2.5c-3.4-2.6-7.4-4.1-11.4-5.7
			c-0.8-0.3-2.2-0.1-2.9,0.4c-0.7,0.4-1.2,1-1.5,1.8c-0.7,1.5-0.2,3.9,1.5,4.6c0.9,0.4,1.7,0.8,2.5,1.3c0.2,0.1,0.4,0.3,0.7,0.5
			c0.6,0.4-0.7-0.6-0.1-0.1c0.4,0.3,0.7,0.6,1.1,0.9c0.3,0.3,0.7,0.7,1,1c0.1,0.2,0.3,0.3,0.4,0.5c0.2,0.3,0.2,0.2-0.2-0.3
			c0.1,0.1,0.2,0.2,0.2,0.3c0.6,0.9,1.2,1.8,1.8,2.6c1.3,1.7,2.9,2.8,4.8,3.7c0.7,0.3,1.5,0.7,2.2,1.1c0.1,0.1,0.3,0.2,0.4,0.3
			c0.8,0.5-0.5-0.5-0.1-0.1c0.3,0.3,1.1,1.3,0.3,0.2c0.6,0.8,1.2,1.4,2.2,1.7c0.9,0.2,2.1,0.1,2.9-0.4c1.6-1,2.6-3.4,1.3-5.1
			c-0.8-1.2-1.7-2-2.9-2.8c-0.7-0.4-1.4-0.8-2.1-1.1c-0.7-0.3-1.5-0.7-2.2-1.1c-0.2-0.1-0.4-0.2-0.6-0.4c-0.5-0.4,0.7,0.6,0.2,0.2
			c-0.2-0.2-0.4-0.4-0.6-0.6c-0.1-0.1-0.2-0.2-0.3-0.3c0.3,0.4,0.4,0.6,0.3,0.3c-1.2-1.8-2.5-3.7-4.1-5.2c-1.6-1.5-3.5-2.8-5.5-3.7
			c-1,2.3-1.9,4.5-2.9,6.8c1,0.4,2,0.8,3,1.2c-0.3-0.1-0.6-0.2-0.9-0.4c1.8,0.7,3.5,1.5,5.1,2.5c0.4,0.2,0.8,0.5,1.2,0.8
			c0.2,0.1,0.3,0.2,0.5,0.3c0.2,0.2,0.9,0.8,0.1,0c0.7,0.6,1.4,1.2,2,1.8c0.3,0.3,0.6,0.7,0.9,1.1c0.2,0.3,0.2,0.2-0.2-0.2
			c0.1,0.1,0.2,0.2,0.3,0.4c0.1,0.2,0.3,0.4,0.4,0.5c0.6,0.8,1.2,1.7,1.8,2.5c0.9,1.2,1.8,2.3,3,3.2c1.3,0.9,3.2,1.4,4.8,0.8
			c1.2-0.5,2.2-1.2,2.6-2.6c0.3-1.2,0-2.7-1-3.6c-6.2-5.7-13-10.8-20.1-15.2c-2.4-1.5-4.8-2.7-7.6-2.8c-1.9-0.1-3.8,1.8-3.7,3.7
			C1419.9,417.6,1421.4,419.1,1423.5,419.2L1423.5,419.2z"/>
	</g>
</g>
<g>
	<g>
		<path fill="#C97F27" d="M1426.5,416.7c0.1,0,0.2,0,0.3,0c-0.3,0-0.7-0.1-1-0.1c0.3,0,0.5,0.1,0.8,0.2c-0.3-0.1-0.6-0.2-0.9-0.4
			c0.4,0.2,0.7,0.4,1.1,0.7c-0.3-0.2-0.5-0.4-0.8-0.6c0.8,0.7,1.6,1.4,2.4,2.1c0.4,0.4,0.8,0.8,1.3,1.2c0.4,0.4,0.8,0.7,1.1,1.1
			c-0.2-0.3-0.4-0.5-0.6-0.8c0.1,0.1,0.2,0.2,0.2,0.4c-0.1-0.3-0.2-0.6-0.4-0.9c0,0.1,0,0.1,0.1,0.2c0-0.3-0.1-0.7-0.1-1
			c0,0.1,0,0.1,0,0.2c0-0.3,0.1-0.7,0.1-1c0,0,0,0.1,0,0.1c1.8-0.7,3.6-1.5,5.5-2.2c-0.9-0.5-1.7-1.1-2.5-1.7
			c0.3,0.2,0.5,0.4,0.8,0.6c-1.4-1.1-2.7-2.3-3.9-3.6c-0.6-0.7-1.7-1.1-2.6-1.1c-0.9,0-2,0.4-2.6,1.1c-0.7,0.7-1.1,1.6-1.1,2.6
			c0,1,0.4,1.9,1.1,2.6c2.1,2.3,4.6,4.3,7.2,5.9c1,0.6,2.3,0.6,3.3,0.2c1-0.4,2-1.3,2.2-2.4c0.1-0.8,0.2-1.5,0-2.3
			c-0.1-0.5-0.3-0.9-0.6-1.3c-0.4-0.6-0.8-1.1-1.4-1.6c-0.8-0.7-1.5-1.4-2.3-2.1c-0.9-0.8-1.7-1.6-2.7-2.3c-1.1-0.8-2.5-1.3-3.9-1.3
			c-0.9,0-2,0.4-2.6,1.1c-0.6,0.6-1.1,1.7-1.1,2.6C1422.9,415.1,1424.5,416.6,1426.5,416.7L1426.5,416.7z"/>
	</g>
</g>
<g>
	<g>
		<path fill="#C97F27" d="M1354,386.2c10.2,4.5,20.2,9.3,30.1,14.3c9.9,5,19.7,10.3,29.4,15.8c5.4,3.1,10.8,6.3,16.2,9.5
			c1.7,1,4.2,0.4,5.1-1.3c1-1.8,0.4-4-1.3-5.1c-9.5-5.8-19.1-11.3-28.9-16.6c-9.8-5.3-19.7-10.4-29.7-15.2c-5.6-2.7-11.3-5.3-17-7.9
			c-0.9-0.4-1.8-0.7-2.9-0.4c-0.9,0.2-1.8,0.9-2.2,1.7C1351.9,382.7,1352.1,385.3,1354,386.2L1354,386.2z"/>
	</g>
</g>
<g>
	<g>
		<path fill="#C97F27" d="M1338.2,382.1c2.9,1.5,5.9,2.4,9.1,3.1c3,0.7,5.9,1.5,8.8,2.7c-0.3-0.1-0.6-0.2-0.9-0.4
			c4.6,1.9,9.1,4.2,13.6,6.2c4.6,2.1,9.2,4.2,13.8,6.4c2.6,1.2,5.3,2.4,7.9,3.7c0.9,0.4,1.8,0.7,2.9,0.4c0.9-0.2,1.8-0.9,2.2-1.7
			c0.9-1.6,0.6-4.2-1.3-5.1c-6.8-3.1-13.5-6.3-20.3-9.4c-3.4-1.6-6.8-3.1-10.2-4.7c-3.4-1.6-6.7-3.2-10.3-4.2c-3.6-1-7.3-1.6-10.8-3
			c0.3,0.1,0.6,0.2,0.9,0.4c-0.5-0.2-1.1-0.5-1.6-0.7c-1.7-0.9-4.1-0.5-5.1,1.3C1336,378.8,1336.4,381.2,1338.2,382.1L1338.2,382.1z
			"/>
	</g>
</g>
<g>
	<g>
		<path fill="#C97F27" d="M1461.7,452.4c1.4,2.2,2.6,4.6,3.6,7c-0.1-0.3-0.2-0.6-0.4-0.9c1.7,4.1,2.9,8.3,3.4,12.7
			c0-0.3-0.1-0.7-0.1-1c0.3,2.2,0.4,4.4,0.4,6.6c0,1.9,1.7,3.8,3.7,3.7c2-0.1,3.7-1.6,3.7-3.7c0-9.9-2.8-19.8-8-28.2
			c-1-1.7-3.4-2.4-5.1-1.3C1461.4,448.4,1460.6,450.7,1461.7,452.4L1461.7,452.4z"/>
	</g>
</g>
<g>
	<g>
		<path fill="#C97F27" d="M1460.4,454c2.1,4.2,4.4,8.4,6.3,12.8c-0.1-0.3-0.2-0.6-0.4-0.9c1,2.5,1.9,5,2.3,7.6
			c0.1,0.9,1,1.8,1.7,2.2c0.8,0.5,2,0.7,2.9,0.4c0.9-0.3,1.8-0.8,2.2-1.7c0.5-0.9,0.5-1.8,0.4-2.9c-0.6-3.9-2.1-7.5-3.8-11
			c-1.6-3.5-3.4-6.9-5.2-10.3c-0.9-1.7-3.5-2.4-5.1-1.3C1460,450.1,1459.5,452.2,1460.4,454L1460.4,454z"/>
	</g>
</g>
<g>
	<g>
		<path fill="#C97F27" d="M1331.4,381c0.4,0,0.8,0.1,1.2,0.1c-0.3,0-0.7-0.1-1-0.1c4.7,0.6,9.1,2.4,13.5,4.2
			c-0.3-0.1-0.6-0.2-0.9-0.4c13.9,5.9,27.6,12.2,41.1,19c13.5,6.8,26.8,14,39.9,21.6c7.4,4.3,14.7,8.7,21.9,13.3
			c1.6,1,4.2,0.4,5.1-1.3c1-1.8,0.4-4-1.3-5.1c-7.3-4.6-14.6-9.1-22.1-13.4c-7.4-4.3-15-8.5-22.5-12.6c-7.6-4-15.2-7.9-22.9-11.7
			c-7.7-3.8-15.5-7.4-23.4-10.9c-3.9-1.7-7.9-3.5-11.8-5.1c-4.1-1.7-8.3-3.5-12.7-4.4c-1.3-0.2-2.6-0.4-3.8-0.5
			c-0.9-0.1-2,0.5-2.6,1.1c-0.6,0.6-1.1,1.7-1.1,2.6c0,1,0.4,2,1.1,2.6C1329.6,380.6,1330.4,380.9,1331.4,381L1331.4,381z"/>
	</g>
</g>
<g>
	<g>
		<path fill="#C97F27" d="M1328.3,379.8c6.6,2.3,13.2,4.8,19.7,7.5c-0.3-0.1-0.6-0.2-0.9-0.4c7.3,3.1,14.6,6.5,21.6,10.2
			c3.4,1.8,6.7,3.9,10.2,5.5c3.6,1.6,7.2,3.3,10.7,5c7,3.5,13.8,7.2,20.6,11c6.8,3.8,13.4,7.8,20.1,11.7c6.7,3.9,13.4,7.8,20.1,11.6
			c0.4,0.2,0.8,0.4,1.1,0.6c0,0,0.2,0.1,0.2,0.1c0,0-0.6-0.5-0.4-0.3c0.5,0.6-0.4-0.6-0.1-0.2c-0.1-0.3-0.2-0.6-0.4-0.9
			c0,0.1,0.1,0.2,0.1,0.3c0-0.3-0.1-0.7-0.1-1c0,0.1,0,0.1,0,0.2c0-0.3,0.1-0.7,0.1-1c0,0.1,0,0.1,0,0.2c-0.2,1-0.1,2,0.4,2.9
			c0.5,0.8,1.3,1.5,2.2,1.7c1.8,0.4,4.2-0.6,4.6-2.6c0.2-1.2,0.2-2.4-0.4-3.5c-0.5-0.9-1.1-1.4-1.9-2c-0.9-0.6-1.9-1.1-2.8-1.6
			c-2-1.1-4.1-2.3-6.1-3.4c-4-2.3-8-4.6-12-7c-8-4.7-15.9-9.4-23.9-13.9c-8.2-4.6-16.5-8.9-25-12.8c-2.1-1-4.3-1.8-6.3-2.9
			c-2.1-1.1-4-2.3-6.1-3.4c-4.2-2.2-8.4-4.3-12.7-6.3c-8.9-4.1-17.9-7.9-27.2-11.1c-1.1-0.4-2.2-0.8-3.4-1.2
			c-1.8-0.6-4.1,0.7-4.6,2.6C1325.2,377.3,1326.3,379.1,1328.3,379.8L1328.3,379.8z"/>
	</g>
</g>
<g>
	<g>
		<path fill="#C97F27" d="M1438.6,433.3c7.2,6.2,14.7,12.2,21.1,19.2c1.3,1.4,3.9,1.4,5.3,0c1.4-1.5,1.4-3.7,0-5.3
			c-6.4-7-13.9-13-21.1-19.2c-0.8-0.7-1.6-1.1-2.6-1.1c-0.9,0-2,0.4-2.6,1.1C1437.4,429.4,1437.1,432,1438.6,433.3L1438.6,433.3z"/>
	</g>
</g>
<g>
	<g>
		<path fill="#966D32" d="M1027.9,501c7.1,4.1,14.2,8.2,21.4,12.3c6.9,4,13.9,7.9,20.6,12.3c1.6,1.1,3.3,2.2,4.9,3.4
			c0.7,0.5,1.4,1,2.1,1.6c0.4,0.3,0.8,0.6,1.2,0.9c-0.6-0.5-0.1-0.1,0.1,0c0.3,0.2,0.5,0.4,0.8,0.6c3,2.4,5.9,4.8,8.8,7.3
			c5.5,4.8,10.9,9.7,16.2,14.6c10.3,9.6,20.4,19.4,29.9,29.8c4.8,5.2,9.4,10.4,13.8,15.8c1.1,1.3,2.2,2.7,3.3,4c0.5,0.7,1,1.3,1.6,2
			c0.3,0.3,0.5,0.7,0.8,1c0.1,0.1,0.2,0.3,0.3,0.4c-0.6-0.7-0.1-0.1,0.1,0.1c2.2,2.8,4.3,5.6,6.3,8.5c8.1,11.3,15.3,23.2,21.2,35.8
			c0.7,1.6,1.5,3.1,2.2,4.7c0.8,1.8,3.5,2.3,5.1,1.3c1.8-1.2,2.2-3.2,1.3-5.1c-5.7-12.8-12.7-25-20.7-36.6
			c-8.1-11.8-17-22.9-26.6-33.5c-9.4-10.5-19.4-20.5-29.7-30.1c-5.2-4.9-10.5-9.7-15.9-14.5c-6-5.3-12.1-10.5-18.5-15.2
			c-6.4-4.6-13.2-8.6-20-12.6c-7.2-4.1-14.3-8.3-21.5-12.4c-1.8-1-3.5-2-5.3-3c-1.7-1-4.1-0.4-5.1,1.3
			C1025.6,497.7,1026.1,500,1027.9,501L1027.9,501z"/>
	</g>
</g>
<g>
	<g>
		<path fill="#966D32" d="M219.5,724c-8.1,7.4-14.1,16.8-18.6,26.7c-4.6,10.2-8,20.9-11.3,31.6c-1.9,6.1-3.7,12.4-4.6,18.7
			c-0.5,3.3-0.8,6.7-0.7,10c0.1,3.3,0.4,6.6,1,9.8c1.1,6.2,3.1,12.2,5.6,18c1.2,2.8,2.5,5.5,3.9,8.2c1.5,2.9,3.1,5.7,5.2,8.2
			c3.9,4.7,9.7,7.5,14.9,10.4c5.6,3.2,11.3,6.2,17.3,8.5c1.4,0.6,2.8,1.1,4.3,1.5c1.9,0.6,4.1-0.7,4.6-2.6c0.5-2-0.6-3.9-2.6-4.6
			c-1.4-0.5-2.9-1-4.3-1.5c-0.3-0.1-0.7-0.3-1-0.4c-0.2-0.1-0.3-0.1-0.5-0.2c-0.6-0.3,0.1,0,0.1,0.1c-0.7-0.3-1.5-0.6-2.2-1
			c-2.8-1.3-5.5-2.7-8.1-4.1c-2.7-1.4-5.3-3-7.9-4.5c-1.2-0.7-2.4-1.4-3.6-2.2c-0.6-0.4-1.1-0.7-1.7-1.1c-0.3-0.2-0.5-0.4-0.8-0.6
			c-0.5-0.4,0.1,0.1,0.2,0.1c-0.2-0.2-0.4-0.3-0.6-0.5c-1.1-0.9-2.1-1.9-3-3c-0.2-0.2-0.2-0.5,0.1,0.1c-0.1-0.1-0.2-0.3-0.3-0.4
			c-0.2-0.3-0.4-0.6-0.6-0.8c-0.4-0.6-0.8-1.3-1.2-2c-1.5-2.6-2.9-5.2-4.1-7.9c-0.3-0.6-0.6-1.3-0.9-1.9c-0.1-0.3-0.3-0.6-0.4-1
			c-0.1-0.2-0.1-0.3-0.2-0.5c-0.4-0.8,0.3,0.8,0-0.1c-0.6-1.4-1.1-2.8-1.6-4.2c-1-2.8-1.9-5.6-2.5-8.5c-0.3-1.4-0.6-2.9-0.9-4.3
			c-0.1-0.3-0.1-0.7-0.2-1c0-0.2,0-0.3-0.1-0.5c0,0.1,0.1,0.9,0,0.2c-0.1-0.8-0.2-1.6-0.2-2.3c-0.3-3-0.3-6-0.1-9
			c0.1-0.7,0.1-1.5,0.2-2.2c0-0.3,0.1-1.4,0-0.4c0-0.5,0.1-0.9,0.2-1.4c0.2-1.5,0.5-3,0.9-4.5c0.7-3.1,1.5-6.1,2.4-9.1
			c1.6-5.4,3.2-10.7,5-16.1c0.8-2.5,1.7-5.1,2.6-7.6c0.5-1.3,0.9-2.5,1.4-3.7c0.2-0.6,0.5-1.2,0.7-1.7c0.1-0.3,0.2-0.6,0.4-0.9
			c0.1-0.2,0.1-0.4,0.2-0.5c0.1-0.1,0.3-0.8,0.1-0.2c-0.3,0.6,0.2-0.4,0.2-0.5c0.1-0.3,0.2-0.6,0.4-0.9c0.3-0.6,0.6-1.3,0.9-1.9
			c0.5-1.2,1.1-2.4,1.7-3.6c1.2-2.3,2.4-4.6,3.7-6.8c1.4-2.2,2.8-4.4,4.4-6.5c0.1-0.1,0.2-0.2,0.3-0.4c-0.4,0.7-0.3,0.4-0.2,0.2
			c0.2-0.3,0.4-0.5,0.6-0.8c0.4-0.5,0.8-1,1.2-1.5c0.8-1,1.7-2,2.6-2.9c0.9-0.9,1.9-1.9,2.8-2.7c1.4-1.3,1.4-3.9,0-5.3
			C223.2,722.6,221,722.6,219.5,724L219.5,724z"/>
	</g>
</g>
<g>
	<g>
		<path fill="#966D32" d="M225.5,729.2c0.4-0.3-0.2,0.1-0.3,0.2c0.1-0.1,0.3-0.2,0.4-0.3c0.2-0.2,0.5-0.3,0.7-0.5
			c0.5-0.4,1-0.7,1.6-1c1.1-0.6,2.2-1.2,3.3-1.7c-0.3,0.1-0.6,0.2-0.9,0.4c2.3-1,4.8-1.7,7.3-2c-0.3,0-0.7,0.1-1,0.1
			c0.6-0.1,1.3-0.1,1.9-0.2c1.9-0.1,3.8-1.6,3.7-3.7c-0.1-1.9-1.6-3.9-3.7-3.7c-3.2,0.2-6.4,0.8-9.4,2c-3.3,1.3-6.2,3-8.9,5.1
			c-0.7,0.6-1.1,1.8-1.1,2.6c0,0.9,0.4,2,1.1,2.6c0.7,0.7,1.6,1.1,2.6,1.1C223.9,730.3,224.7,729.9,225.5,729.2L225.5,729.2z"/>
	</g>
</g>
<g>
	<g>
		<g>
			<path fill="#76AF3F" d="M1436.5,914.6c0.4-1,0.8-1.9,1.2-2.9c-0.4,0.1-0.8,0.1-1.1,0.2c-0.8-0.1-2.1,0.4-2.9,0.6
				c-2.4,0.5-4.7,1.4-6.8,2.6c-3.5,1.9-6.5,5.7-10.3,6.8c-4.3,1.2-10.3-0.3-14.7-0.7c-5.6-0.6-11.2-1.5-16.8-2.6
				c-0.8,5.8-1.6,11.7-2.4,17.5c7.4-0.3,14.9-0.1,22.3,1.1c-0.7-5.4-1.4-10.9-2.1-16.3c-6,3.7-12.7,6.1-19.9,6.4
				c-7.6,0.4-13.9-2.1-21.2-3.6c-8.7-1.7-17.1-0.3-25.8,1.2c-6.8,1.1-13.9,2.1-20-1.9c-0.7,5.4-1.4,10.9-2.1,16.3
				c6.7-2.1,13.1-3,20.1-2.9c10.6,0.1,11.5-14.2,2.4-17.5c-7.9-2.9-15.9-1.3-23.9,0.5c-8.1,1.8-14.6,1.9-22.5-1
				c-7.5-2.7-14.3-6.8-21.5-9.9c-4.1-1.8-7.9-2.9-12.4-3.2c-2.1-0.1-7.3,0.1-8.9-1.6c0.8,1.3,1.5,2.6,2.3,3.9
				c-0.4-1.7,1.4-7.2,1.7-9.3c-2.9,2.2-5.7,4.4-8.6,6.6c13.7,0.3,19.6,14.4,32.5,17.2c7.5,1.6,15.5,1.7,23.1,1.2
				c7.5-0.4,15.3-2.8,22.9-2.1c6.7,0.6,12.9,4.6,19.1,7c6.6,2.6,13.7,4.3,20.9,3.9c13.6-0.7,26.2-8.4,39.9-7
				c9.2,0.9,11.6-12.4,4.5-16.6c-5.5-3.3-12.3-3.4-17.7,0.2c-6,4-5.8,14.5,2.1,16.3c11.9,2.7,27.6,5.9,39.4,1.5
				c6.1-2.3,10.2-7,14.9-11.3c4.4-4.1,9.7-7.7,15.2-10.1c-3.4-4.4-6.7-8.7-10.1-13.1c-2.6,4-3.6,8.5-4.2,13.1
				c-0.4,3.7-0.2,7.7-1.3,11.2c-1.2,3.9-5.3,5.1-8.8,6.7c-4.9,2.3-9.9,4.2-14.9,5.9c-20.2,6.6-41.4,8.5-62.4,6
				c0.8,5.8,1.6,11.7,2.4,17.5c3.3-1,5.5-2.5,7.1-5.5c3.7-7.2-2.4-14.6-10.1-13.1c-9.2,1.8-18.5,2.9-27.8,3.3
				c-8.9,0.4-18.6,0.8-27.4-1c-8.2-1.6-14.4-6.9-21.3-11.2c-7.5-4.7-16.1-8.4-25.1-7.5c-3.6,0.4-7.2,1.8-10.8,1.8
				c-0.3,0-0.1,2.3-0.3-0.8c-0.1-2-0.4-4-0.6-5.9c-0.6-8.3,0-16.5-0.4-24.8c-0.3-6.9-1.7-14-2.6-20.9c-1.2-9.8-14.1-12.4-17.5-2.4
				c-4.4,12.8-6.2,26.6-5.6,40.1c0.5,11.6,1.5,27.5,10,36.4c4.3,4.5,10.3,6.7,16.5,6.5c5.5-0.2,11.7-3.1,17.2-1.9
				c4.1,0.9,7.5,4.3,10.6,6.9c4.7,3.9,9.4,7.7,15.1,10c13.4,5.2,28.2-0.7,42.1-0.3c14.4,0.5,28.6,2.6,43,2.1
				c26.7-0.8,55.7-5.8,79.8-17.7c14.5-7.2,17.3-22.8,19.5-37.3c2.6-16.4,4.1-33,3.1-49.6c-0.7-11.4-18.5-11.5-17.8,0
				c0.8,13.1,0.1,26.2-1.6,39.2c-0.7,5.5-1.6,11-2.7,16.5c-0.9,4.7-2,10.7-6,13.8c-3.9,3.1-9.6,4.5-14.2,6.1
				c-5.7,2-11.6,3.7-17.4,5.2c-12.2,3.1-24.6,5-37.2,5.7c-12.4,0.7-24.6,0-36.9-1.1c-6.4-0.6-12.8-1.1-19.2-0.8
				c-6.2,0.3-12.2,1.7-18.4,2.2c-5.2,0.4-9.5-0.1-13.8-3.1c-4.2-2.8-7.8-6.4-11.8-9.4c-9.3-6.9-18.5-7.1-29.5-5
				c-3.8,0.7-6.8,1.4-8.6-2.7c-2.4-5.5-3-12.4-3.5-18.4c-1-13.3,0.4-26.3,4.7-38.9c-5.8-0.8-11.7-1.6-17.5-2.4
				c0.8,6.4,1.7,12.8,2.4,19.2c1.3,12.7-1.7,26.5,2.2,38.9c2.4,7.5,9.1,11.8,16.8,12c7.3,0.2,13.2-3.3,20.3-0.4
				c6.7,2.7,12.2,7.7,18.5,11.2c7.1,4,14.5,5.9,22.6,6.7c18.7,1.7,37.8,0,56.1-3.5c-3.4-4.4-6.7-8.7-10.1-13.1
				c-0.2,0.4-0.4,0.7-0.6,1.1c1.8-1.4,3.6-2.7,5.3-4.1c-0.4,0.1-0.8,0.2-1.2,0.4c-10.1,3.2-7.3,16.4,2.4,17.5
				c23.6,2.8,48,0.2,70.5-7.7c10.2-3.6,24.3-7.9,30.2-17.6c2.7-4.4,3.4-9.6,3.9-14.6c0.4-4,0.2-8.2,2.4-11.7
				c3.9-6.1-2.7-16.2-10.1-13.1c-5.7,2.4-10.9,5.1-15.9,8.8c-4.7,3.5-8.5,7.8-13,11.5c-3.6,2.9-8.4,2.4-12.8,2.2
				c-6.2-0.2-12.3-1.1-18.4-2.5c0.7,5.4,1.4,10.9,2.1,16.3c0.7-0.5-1.1-0.7-0.3-0.2c1.5-5.5,3-11.1,4.5-16.6
				c-13.8-1.4-25.7,5.8-39.1,7c-14.7,1.3-26.4-10.1-40.7-10.8c-7.6-0.4-15.2,1.6-22.9,2.1c-6.4,0.4-14.6,1.2-20.7-1.2
				c-5.4-2.1-9.2-8-14.1-11.1c-6.2-4-13.5-5.9-20.8-6.1c-3.6-0.1-8,2.8-8.6,6.6c-0.9,5.3-3.2,12-2.1,17.4c1.3,5.9,6.1,8.4,11.4,10.2
				c4.7,1.6,9.6,1.1,14.4,2.1c4.9,1.1,9.7,4.4,14.3,6.6c9.6,4.6,19.7,8.9,30.5,8.9c9.5,0,20-6,29.2-2.7c0.8-5.8,1.6-11.7,2.4-17.5
				c-8.4-0.1-16.8,1.1-24.9,3.5c-7.6,2.3-8.5,12.1-2.1,16.3c7.7,5.1,17.1,6,26.1,4.9c9.1-1.1,18.2-4,27.3-1.5
				c17.8,4.9,35.3,4.4,51.4-5.5c6-3.6,5.9-15.1-2.1-16.3c-9-1.4-17.9-2.1-27-1.7c-9.6,0.4-12.7,15.6-2.4,17.5
				c8,1.5,16.2,2.7,24.3,3.5c7.4,0.7,14.6,1.4,21.4-2.1c2.7-1.4,5-3.5,7.5-5.2c2.4-1.6,4.3-2.1,7.1-2.7c7.8-1.8,12.9-6.6,13.8-14.7
				c0.5-4.8-4.5-8.9-8.9-8.9C1440.2,905.7,1437.1,909.8,1436.5,914.6L1436.5,914.6z"/>
		</g>
	</g>
	<g>
		<g>
			<path fill="#9BD162" d="M1250.8,820.6c-0.8-1.3-0.8-1.1-0.1-2.5c1-1.9,2.7-3.6,4.8-4.4c6.6-2.6,14.9-1,21.7-1.3
				c16.2-0.8,31.1-7.2,43.2-17.9c-4.1,0.5-8.1,1-12.2,1.6c8.4,5.2,18.1,6.1,27.7,6.5c10.4,0.4,20.8,1.1,31.2,2.3
				c10.2,1.1,20.4,2.8,30.4,4.7c5.3,1,10.6,2.2,15.9,3.4c0.9,0.2,5.1,1.8,5.9,1.4c-6.1,2.9-1-5.5-2.2-2.2c-0.5,1.4,0,3.7,0.3,5.1
				c1.8,8.7,9.6,12.8,17.7,14.5c6.7,1.4,12,2.1,15.9,8.3c4.8,7.7,4.6,16.9,3.9,25.6c-0.3,4.2-1.2,8.3-1.7,12.4
				c-0.6,5.4-0.1,0.6-0.6,1.4c0.6-0.9,1.1-0.8,0.3-0.6c-2.3,0.7-4.9,0.7-7.2,1.5c-7,2.2-12.7,7.2-17.7,12.4
				c-2.2,2.2-4.3,4.5-6.6,6.5c-1.4,1.2-0.8,0.7-2.2,1.6c-0.2,0.1-1.9,1.2-1,0.6c0.7-0.5-1.5,0.2,0.1,0.1c-1.6,0.1-1,0-0.4,0.2
				c-0.9-0.2-1.4-0.4-2.2-0.8c-1.8-0.8-3.5-2-5.3-2.9c-4.1-1.9-8.2-2.9-12.7-3.1c-7.7-0.4-15.3,2-22.5,4.4c-6.3,2.1-12.8,4.7-19,4.3
				c-2-0.1-4.6-1.3-7-3c-4.1-2.9-8-5.5-12.9-6.9c-9.7-2.8-20.1-0.7-29.6,1.8c-6.8,1.8-14,4.2-21.1,2.9c-3.5-0.7-5.3-2.1-7.3-5.1
				c-3-4.5-5.7-8.9-10.5-11.8c-4.6-2.7-9.8-3.4-15-4.1c-2.6-0.3-6.3-0.5-8.3-2c-4.9-3.8-3-13.3-1.2-18.8c3.5-10.8,8.5-20.7,8.3-32.3
				c-1.7,2.9-3.3,5.8-5,8.7c3.2-2.1,6.4-4.2,9.6-6.2c-5-2.9-10.1-5.8-15.1-8.7c0.5,5.3,1.1,10.8,0.5,16.1c-0.6,4.8-2.9,9-4.8,13.4
				c-4,9.4-5.9,20,0,29c2.9,4.4,7.5,7.3,12.6,8.6c3.9,1,8.1,0.6,11.5,2.8c6.6,4.3,10.9,11.2,17.9,15.1c9.8,5.5,20.8,4.1,31.4,2
				c10.3-2.1,20.3-3.6,30.5-0.1c10,3.5,18.7,7.9,29.7,7.3c10-0.5,19.6-4,29.6-4.7c6-0.4,11.2,1.5,17.1,1.9
				c6.8,0.5,12.3-2.3,17.2-6.8c4-3.8,7.8-7.8,11.7-11.7c3.5-3.5,7-7.1,12-8.5c-4.1-4.1-8.2-8.2-12.4-12.4c0.9-1.1,1-1.2,0.2-0.4
				c-0.5,0.5-1.1,0.9-1.6,1.3c5.3,4.1,10.5,8.1,15.8,12.2c7.3-14.5,9.6-34.3,0.9-48.8c-4.6-7.7-13.4-9.5-21.3-12
				c-5.5-1.7-14.2-4-16.6-10.2c-3.2,4.2-6.5,8.5-9.7,12.7c3.2,0,6.4-0.1,9.6-0.1c5-0.1,9.3-3.8,9.9-8.7c0.5-4.5-2.2-10.2-7.2-11
				c-3.6-0.6-7.2-1.4-10.6-2.8c0,5.8,0,11.6,0,17.3c1.6-0.9,1.8-0.6,2.7,0.5c0,0,0.7,5.3,0.3,4.2c0.1,0.2,0.9,2.3,1,2.4
				c0.1,0.2,0.3,0.4,0.4,0.6c2,3.4,4.6,6.7,6.8,10c4.6,6.8,9.2,13.5,13.8,20.3c5.5,8,18.5,5.3,18.7-5.1c0.2-11.9-4.7-24-14-31.6
				c-10.7-8.7-25.9-6-38.8-6c2.9,1.7,5.8,3.3,8.7,5c-2.7-4.5-5.4-9-8.1-13.5c-1.8-3-5.1-5.1-8.7-5c-11.8,0.4-23.1-2-33.6-7.4
				c-2.6,6.1-5.2,12.2-7.7,18.4c9.6,3.5,19.4,5.6,29.5,6.7c11.1,1.3,13.8-18,2.7-19.7c-11.5-1.8-23-3.6-34.4-5.4
				c-5.7-0.9-11.5-1.8-17.2-2.7c-5.9-0.9-12.1-2.5-18.1-2.2c-5.8,0.3-10.6,2.5-15.8,4.8c-4.8,2.1-9.8,3.9-14.9,5.3
				c-10.7,3.1-21.6,4.5-32.7,4.5c-8.6,0-13.4,11-7.1,17.1c6.6,6.4,2.6,17.7,0.8,25.3c-1.4,5.8-3.5,12.7-2.1,18.7
				c1.7,6.8,8.5,9.9,13.9,13.3c10.5,6.6,21.1,14.7,33.5,17.1c12.4,2.4,25.1,0.9,37.6,0.4c24.3-0.8,48.7,6.8,72.8,1.8
				c11.7-2.4,21.8-8.6,30.5-16.6c7.9-7.4,16.5-16.7,18.3-27.7c2-11.8-4.1-23.9-16.2-27c-4.4-1.1-9.1-0.3-13.3-1.9
				c-4.4-1.7-8.3-5-12-7.8c-8.9-6.8-17.5-11-28.9-12.1c-12.4-1.1-24.8-1.7-37.2-2.9c-24.3-2.3-49.7-3.5-72.8,6
				c-12.1,5-20.4,13.1-18.4,27.2c1.6,11.1,4.1,25.3,11.7,34c4.3,4.9,10.4,7.4,16.2,10.1c6.3,2.9,12.7,5.7,19.3,7.7
				c13.5,4.2,27.3,4.4,41,1.1c27.1-6.5,50.7-22.7,76.3-33.2c-3.3-5.6-6.5-11.2-9.8-16.8c-3.2,2.7-7.2,4.3-11.1,5.7
				c-5.4,2-10.8,3.9-16.1,6.1c-10.9,4.4-21.5,9.4-31.9,14.9c-9.1,4.8-4.5,18.5,5.1,18.7c21.4,0.5,42.9-2.7,63.2-9.5
				c11.3-3.8,8.3-18.4-2.7-19.7c-3.5-0.4-6.9-0.8-10.4-1.1c0.9,6.6,1.8,13.1,2.7,19.7c12.6-4,22.8-11.9,30.1-22.8
				c4.4-6.6-1.5-14.9-8.7-15.1c-19.7-0.5-37.6-10.4-56-16.2c-10.4-3.3-21.2-5-32.1-5.1c-11.7,0-23.3,1.2-35,0.8
				c-11.7-0.4-21.7,1.4-31.7,7.7c-4.9,3.1-9.8,6.5-11.2,12.5c-1.3,5.6,0.9,11.6,3.8,16.3c5.6,9,14.4,14.9,24.1,18.7
				c9.9,3.9,21.5,6.4,32.1,7.2c12.6,0.8,21.9-5.3,31.6-12.4c9.7-7,20.1-13,31.2-17.3c-3.8-4.9-7.6-9.8-11.3-14.7
				c-2.5,5.1-7.7,6.8-13.1,7c-8.8,0.3-17.5-1.6-26.2-2.1c-17.5-1-35.1,0.1-52.6,0.5c3.3,3.3,6.7,6.7,10,10c0,0.6-0.6,0.5,0.3,0.1
				c0.9-0.5,1.8-1.3,2.9-1.7c2.5-1.1,5.3-1.5,7.9-2c7.7-1.3,15.7-0.9,23.4-0.2c16.1,1.4,32.1,4.7,48.4,4c6.9-0.3,13.5-8.6,8.7-15.1
				c-7.2-9.7-14.4-19.4-21.5-29.1c-2.1-2.9-4-5.4-7.6-6.8c-6.6-2.5-12.7-5.1-18.9-8.5c-6.8-3.6-14.1-6.3-21.9-4.4
				c-7.3,1.8-13.3,6.9-19.3,11.1c-4.4,3.1-6.5,8.8-3.6,13.7c2.6,4.4,9.3,6.7,13.7,3.6c3.7-2.6,7.3-5.4,11.2-7.7
				c2.8-1.7,4.6-1.5,7.5-0.2c8.8,3.9,16.8,8.6,26,11.7c-2-1.5-4-3.1-6-4.6c7.7,10.4,15.4,20.8,23.1,31.3c2.9-5,5.8-10.1,8.7-15.1
				c-19.9,0.9-39.4-4.4-59.2-4.6c-16.5-0.2-42.6,3.2-43.6,24.5c-0.3,5.3,4.8,10.2,10,10c20-0.4,40.3-1.9,60.2,0.1
				c9.8,1,19.6,2.7,29.2,0c8.3-2.3,16-7.6,19.9-15.4c3.5-7-2.5-18.3-11.3-14.7c-8.7,3.4-17.1,7.3-25.1,12.1
				c-7.4,4.4-13.9,10.2-21.4,14.5c-7.5,4.3-15.6,1.8-23.6,0c-7.7-1.7-15.8-3.6-22-8.7c-1.3-1-2.5-2.3-3.5-3.6
				c-0.3-0.4-2.3-4.2-2.3-4.2c0.6,0-1.8,3.2-1.2,3.4c0.2,0.1,2.4-1.6,2.8-1.8c2-1.2,4-2.6,6.1-3.5c8.1-3.4,18.3-1.2,26.9-1.4
				c10.1-0.3,20.3-1.3,30.4-0.6c8.5,0.6,16.7,3,24.7,5.7c18.7,6.4,36.5,14.8,56.6,15.3c-2.9-5-5.8-10.1-8.7-15.1
				c-4.3,6.5-10.7,11.2-18.1,13.6c-11.1,3.6-8.5,18.7,2.7,19.7c3.5,0.3,6.9,0.7,10.4,1.1c-0.9-6.6-1.8-13.1-2.7-19.7
				c-18.8,6.3-38.1,9.2-57.8,8.8c1.7,6.2,3.4,12.5,5.1,18.7c10.5-5.6,21.2-10.6,32.2-14.9c10.8-4.2,21.9-7.2,30.9-14.9
				c7.3-6.3-0.5-20.6-9.8-16.8c-18,7.4-35,17-52.7,24.9c-16.6,7.4-34.1,13-52.1,7.7c-8.5-2.5-17.1-6.1-24.8-10.3
				c-6.6-3.6-7.4-14.5-8.8-21.1c-0.4-2.1-1.8-5.4-0.5-7.2c1.7-2.3,6.9-3.5,9.5-4.4c8.4-2.8,17.1-4.2,25.9-4.6
				c19.9-0.9,39.6,2.3,59.3,3.6c8,0.5,16.5-0.2,23.6,3.9c6.4,3.7,11.7,9.1,18.2,12.7c3.4,1.9,7,3.4,10.8,4.2
				c2.1,0.4,4.3,0.6,6.5,0.8c1,0.1,2.1,0.1,3.1,0.2c0.4,0,2.5,0.9,1.4,0.2c3,2-1.8,9.8-4.2,12.7c-5.2,6.2-11.1,12.1-18.3,15.9
				c-7.3,4-15.8,4.9-24,4.9c-11,0-21.8-1.9-32.7-3c-11.2-1.1-22.3-0.6-33.5-0.1c-9.4,0.4-19.7,1.5-28.4-2.6
				c-5.1-2.3-9.7-5.6-14.4-8.6c-4.1-2.6-10.2-5.1-13.4-8.7c0.9,1.5,1.7,3,2.6,4.4c-0.7-2,1.6-8.7,2.3-11.9
				c1.3-5.3,2.5-10.7,2.8-16.2c0.4-9.5-2.4-19.2-9.4-25.9c-2.4,5.7-4.7,11.4-7.1,17.1c11,0,22-1.3,32.7-3.9
				c5.4-1.3,10.6-2.9,15.8-4.9c4.6-1.8,9.4-4.9,14.2-5.8c4.3-0.8,9.2,0.7,13.5,1.4c5.7,0.9,11.5,1.8,17.2,2.7
				c11.5,1.8,23,3.6,34.4,5.4c0.9-6.6,1.8-13.1,2.7-19.7c-8.3-0.9-16.4-3.2-24.1-6c-10.7-3.9-17.8,13.1-7.7,18.4
				c13.5,7.1,28.4,10.7,43.7,10.2c-2.9-1.7-5.8-3.3-8.7-5c1.8,3.1,3.7,6.1,5.5,9.2c3.3,5.5,5.8,9,13.1,9.2c4.4,0.1,8.9,0,13.3,0
				c3.3,0,7.3-0.8,10.3,0.9c5.4,3.1,7.4,11,7.3,16.7c6.2-1.7,12.5-3.4,18.7-5.1c-7-10.3-14.1-20.6-21.1-30.9
				c0.5,1.7,0.9,3.4,1.4,5.1c0.7-17.4-18.1-28-32.9-19.4c-6,3.5-7.1,14.2,0,17.3c5,2.2,9.9,4,15.4,4.8c0.9-6.6,1.8-13.1,2.7-19.7
				c-3.2,0-6.4,0.1-9.6,0.1c-6,0.1-12.1,6.5-9.7,12.7c6.1,16,20.6,21,35.7,25.7c1.2,0.4,2.5,0.8,3.7,1.2c1.5,1,1.7,1,0.5,0
				c0.2,0.4,0.4,0.8,0.6,1.2c0.4,2.9,1.7,5.6,2,8.6c0.6,6.5-0.6,13-3.5,18.8c-5.4,10.7,6.9,19.1,15.8,12.2c3.2-2.5,5.6-5.7,6.6-9.8
				c1.8-7.4-4.8-14.4-12.4-12.4c-9.6,2.6-16.5,9.3-23.3,16.1c-3.1,3.1-6,6.4-9.3,9.3c-1.9,1.7-0.7,1-2.1,1c-2.6,0.1-5.7-1.2-8.3-1.6
				c-9.9-1.4-19.7,0.9-29.4,2.8c-8.8,1.8-16.3,2.1-24.8-1.2c-9.7-3.8-18.6-7.1-29.2-6.9c-9.7,0.2-18.8,3.3-28.3,4.2
				c-8.4,0.8-12.2-3.2-17.9-8.7c-6-5.9-12.4-10.4-20.9-11.7c-2.1-0.3-4.2-0.6-6.2-1.3c1.3,0.5,0,0.6,0-0.7
				c-0.1-4.4,1.5-7.8,3.2-11.8c5.2-11.6,5.9-22.3,4.8-34.8c-0.6-7.1-8.2-13.2-15.1-8.7c-4.1,2.6-10.6,5.6-13.2,9.8
				c-1.6,2.7-1.1,5.5-1.4,8.5c-0.2,2.5-0.9,4.9-1.7,7.3c-1.7,5.5-4.1,10.8-5.9,16.3c-2.8,8.8-3.6,19-0.3,27.8
				c4.3,11.2,13.4,16.4,24.9,17.9c2.8,0.4,7.4,0.2,9.7,2.2c3.2,2.8,4.7,7.8,7.8,10.8c7.1,7.1,17.6,9.3,27.3,8.5
				c10.5-0.9,20.4-5.5,30.8-6.1c4.5-0.2,7.9,0.5,11.6,3.1c4.3,3,8.4,6,13.6,7.2c9,2.1,18.1,0.1,26.7-2.6c7.3-2.3,15.3-6.1,22.8-5
				c2,0.3,5.8,2.8,8.8,4.2c4.8,2.2,10,2.9,15.2,1.6c8-2,13.8-8.4,19.4-14c2.5-2.5,4.7-4.8,7.3-6.4c3.1-1.8,8.5-1.7,12.7-3.8
				c11-5.5,11.6-18.4,12.6-29.2c2-21.5-4-48.5-28.5-54c-2-0.5-4-0.7-6-1.2c-1.3-0.3-5.2-1-5.1-1.6c0,0,4.9,2.8,1.7,2.2
				c0.3,0.1,0.3-3.3,0.3-3.2c-0.2-3.8-1.6-7.4-4.3-10.1c-4.4-4.4-11.1-5.4-17-6.8c-6.8-1.6-13.7-3-20.6-4.2
				c-14.1-2.5-28.3-4.3-42.5-5.4c-6.7-0.5-13.4-0.7-20-1.1c-5.1-0.3-10-0.9-14.4-3.6c-4-2.4-8.8-1.4-12.2,1.6
				c-6.1,5.4-13.3,9-21.2,10.9c-9.2,2.2-18.7,0.6-28,1.8c-9.3,1.3-17.4,5.4-22.7,13.3c-4.8,7.3-5.8,16.8-1,24.4
				C1240.4,841.6,1257.8,831.5,1250.8,820.6L1250.8,820.6z"/>
		</g>
	</g>
</g>
<g>
	<g>
		<g>
			<path fill="#76AF3F" d="M1247.6,841.3c-0.4-0.9,1.6-1.8-0.3-0.2c-0.8,0.6-1.5,1.3-2.2,2c-1.7,1.6-3.3,3.6-4.6,5.6
				c-2.1,3.5-2.8,8.6-5.7,11.5c-3,3.1-9,4.8-12.9,6.5c-5.2,2.3-10.5,4.4-15.9,6.3c2.3,5.4,4.6,10.9,6.9,16.3
				c6.3-4.1,12.9-7.6,19.8-10.4c-3.4-4.4-6.7-8.7-10.1-13.1c-3.3,6.1-7.7,11.6-13.6,15.5c-6.5,4.3-13.3,5.4-20.5,7.9
				c-8,2.8-14.3,7.9-20.6,13.3c-5.6,4.7-11.5,9.7-19.2,9.3c2.1,5.1,4.2,10.2,6.3,15.2c4.7-5.2,9.9-9.3,16-12.8
				c9.3-5.3,2.6-18-6.9-16.3c-8.2,1.4-14.4,6.9-20.2,12.4c-5.4,5.1-10.6,8.6-18,10.2c-7.6,1.7-15.5,1.7-23.2,2.5
				c-5,0.5-9.5,1.2-14,3.4c-2.1,1-6.7,4.2-9.1,3.6c1.3,0.8,2.6,1.5,3.9,2.3c-1.5-1.5-2.5-6.9-3.3-9c-1.4,3.4-2.7,6.7-4.1,10.1
				c6.6-3.7,12.5-2.9,19.6-1.4c8.4,1.8,15.5,0.8,23.2-2.7c6.8-3.1,13.2-7,19.2-11.5c5.1-3.8,10-8.9,16.2-10.9
				c6.8-2.3,14.3-1.9,21.3-3.4c7.4-1.6,14.2-4.6,20.2-9.3c9.4-7.4,16-18.4,27.1-23.5c8.4-3.8,3.8-16.6-4.5-16.6
				c-6.3,0-12.2,3.2-15.1,9c-3.2,6.6,2.2,15.6,10.1,13.1c12.1-3.8,28.4-9.4,36-20.3c3.5-5,4.4-11.2,6.3-16.9
				c2-6.1,5.1-11.7,8.9-16.8c-5.5-1.5-11.1-3-16.6-4.5c-0.2,5.2,1.4,9.8,3.5,14.5c1.4,3.1,4.3,7.1,4.4,10.6c0.1,4.2-4.6,9-7,12.3
				c-2.8,3.9-6,7.6-9.2,11.1c-13.8,15-30.4,26.6-49.1,34.7c3.6,4.7,7.2,9.3,10.8,14c2.3-2.6,3.5-4.9,3.4-8.4
				c-0.4-8-9.4-11.5-15.2-6.3c-13,11.4-27.9,22.1-43.8,28.9c-17,7.3-36.6-3.1-52.6,8.7c-2.1,1.6-5.6,6.4-8.2,6.8
				c-0.5,0.2-0.5,0.3,0.1,0.3c-0.3-0.4-0.6-0.7-0.9-1.1c-1.3-1.6-2.4-3.4-3.6-5.1c-4.6-6.6-8-14-12.5-20.6
				c-3.9-5.8-8.6-11.2-12.8-16.8c-6-7.9-18.4-3.6-16.3,6.9c2.7,13.5,8.2,26.4,15.7,37.8c6.7,10.1,16.1,24.1,29,26.4
				c5.8,1,11.5-0.6,16.3-4c4.3-3,8.1-8.3,13.3-9.7c5-1.3,10.7,0.6,15.7,1.3c6.8,1,13.6,1.4,20.2-1.2c6.3-2.4,11.4-6.4,16.5-10.5
				c5-4.1,10.2-7.5,15.9-10.5c12.1-6.3,24.4-11.5,36-18.7c22.3-14,42.4-32,58.2-53.1c11.1-14.8,5.6-30.4-0.6-45.9
				c-6-15-12.9-29.7-21.9-43.2c-6.4-9.5-21.8-0.6-15.4,9c7,10.5,12.9,21.7,17.9,33.4c2.4,5.6,4.7,11.4,6.7,17.2
				c1.9,5.5,3.8,11.3,0.7,16.6c-5.5,9.5-14.4,17.9-22.3,25.5c-8.3,7.9-17.1,15.1-26.6,21.5c-9.8,6.6-20,12.1-30.7,17.1
				c-5.5,2.6-11,5.1-16.2,8.2c-5.6,3.3-10.4,7.4-15.5,11.3c-3.4,2.7-7.3,5.6-11.7,6.3c-5.3,0.7-10.9-0.9-16-1.7
				c-5.7-0.8-11.5-1.1-17,0.7c-5.4,1.8-9.6,5.4-13.8,9.1c-3.1,2.7-5.5,5.2-9.3,2.3c-4.7-3.5-8.6-8.8-11.9-13.6
				c-7.7-11-13.2-23.2-15.9-36.4c-5.4,2.3-10.9,4.6-16.3,6.9c4,5.2,8,10.3,11.9,15.5c7.4,10.1,11.7,22.7,20.8,31.6
				c5.9,5.8,14.2,6.4,21.2,2.5c6.5-3.6,9.8-9.7,17.6-10.7c7.6-1,15.3,0.7,22.9,0.4c8.5-0.4,16.2-3,23.7-6.8
				c16-8,30.7-18.4,44.1-30.2c-5.1-2.1-10.2-4.2-15.2-6.3c0,0.4,0,0.8,0.1,1.2c0.9-2.1,1.7-4.2,2.6-6.3c-0.3,0.3-0.5,0.6-0.8,0.9
				c-7.1,7.9,1.7,18,10.8,14c20.8-9.1,39.8-22.8,54.8-39.9c7.2-8.1,17.2-18.8,19-29.8c0.9-5.8-0.8-11.1-3.1-16.3
				c-1.8-4.1-4.7-8.1-4.5-12.7c0.1-3.9-2.9-7.6-6.6-8.6c-4.1-1.1-7.7,0.9-10.1,4.1c-3.3,4.4-5.9,9.2-8.1,14.3
				c-2.2,5.2-3.3,10.7-5.3,16c-1.6,4.4-6,6.3-9.9,8.5c-5.5,3-11.2,5.3-17.2,7.1c3.4,4.4,6.7,8.7,10.1,13.1c1.4-2.8-0.5-0.2-0.4-0.2
				c-1.5-5.5-3-11.1-4.5-16.6c-11.9,5.4-18.7,16.5-28.5,24.5c-11.4,9.3-26.4,5.8-39.2,11.2c-6.4,2.7-11.5,7.3-17,11.4
				c-5.9,4.4-12.4,8.7-19.2,11.5c-7,2.9-13.2-0.5-20.3-1.1c-7.9-0.6-15.6,1.4-22.5,5.2c-3.2,1.8-5.5,6.5-4.1,10.1
				c2.1,5.5,3.5,12.8,7.9,16.9c4.5,4.1,11.2,3,16.5,1.5c4.7-1.4,8.8-4.6,13.7-5.3c5.3-0.8,10.8-0.8,16.1-1.3
				c10.4-1,21.1-2.8,29.9-8.9c7.1-4.9,12.9-14.2,21.7-15.7c-2.3-5.4-4.6-10.9-6.9-16.3c-7.3,4.1-13.9,9.4-19.6,15.5
				c-5.3,5.9-1.5,14.8,6.3,15.2c9.7,0.5,18.4-3.9,25.9-9.7c7-5.4,13.1-12.1,21.9-14.4c17.7-4.8,32.6-13.9,41.5-30.6
				c3.3-6.2-2.3-16.1-10.1-13.1c-8.4,3.3-16.5,7.2-24.1,12.2c-8.1,5.2-3.1,19.9,6.9,16.3c7.1-2.5,14.1-5.4,21-8.5
				c6.7-3.1,13.8-6,18.2-12.2c3.1-4.3,3.8-10.2,7.7-13.9c5.3-5,10.3-11.4,7.1-19.1c-1.8-4.5-5.9-7.6-11-6.2
				C1249.7,831.5,1245.8,836.8,1247.6,841.3L1247.6,841.3z"/>
		</g>
	</g>
	<g>
		<g>
			<path fill="#9BD162" d="M1041,856.4c-1.1-0.7-1.3-0.7-0.8-0.2c-0.9-0.8-1-1-0.4-0.5c0.7,1.3-0.4-2.8-0.3-1.4
				c-0.1-2.1,0.2-3.5,1.3-5.2c3.5-5.7,11.3-8.6,16.8-12c14.4-8.9,24.9-22.3,30.1-38.4c-3.2,2.5-6.5,4.9-9.7,7.4
				c10.5,0.2,19.6-4.4,28.6-9.2c9.2-4.9,18.5-9.4,28-13.6c9-4,18.1-7.5,27.4-10.7c4.6-1.6,9.2-3.1,13.9-4.6c1.8-0.6,5.4-1,6.9-2.1
				c2-1.4-3.3-3.9-3-1.7c0.1,0.9,1,2,1.6,2.8c6,9.1,16.7,8.4,25.8,5.2c3.3-1.2,6.5-2.7,10.1-2.3c3.7,0.4,7.4,2.2,10.3,4.4
				c6.6,5.2,10.5,13.4,13.9,20.9c1.3,2.8,3.4,6.3,3.5,9.5c0,0.2,1.2-1.5-0.1-0.3c-0.7,0.6-1.3,1.2-2,1.8c-1.4,1.2-2.8,2.4-4,3.8
				c-4.8,5.8-7,12.9-8.8,20c-0.7,2.9-1.4,5.8-2.4,8.7c-0.4,1-0.2,0.8-1.1,2.2c-1.1,1.7-0.4,0.6-0.1,0.3c-1.1,1.4,0.7,0-0.9,0.8
				c0.5-0.2,1.6-0.3-0.4,0.1c-0.9,0.2-2,0.1-2.9,0.2c-2.5,0.1-5,0.2-7.5,0.6c-3.4,0.6-6.8,1.9-9.8,3.6c-5.9,3.2-10.8,8.2-15.2,13.2
				c-2.1,2.3-4,4.6-6.1,6.9c-1.6,1.7-4.9,5-5.7,5.6c-2.4,1.9-3.9,2.7-5.9,3.2c-2.3,0.6-1.3,0.5-3.4,0.3c-3.1-0.2-6.3-0.7-9.4-0.6
				c-9.6,0.3-17.7,5-24.9,11c-6.7,5.6-12,13-19.6,17.6c-3.4,2.1-7.3,3.9-11.3,2.4c-5.1-1.9-9.1-5-14.7-5.6c-5.3-0.5-10.3,1-15.1,3.1
				c-2.9,1.2-7.1,3.6-10.1,3.2c-6.9-0.9-9.7-11.5-10.9-17.2c-2.2-10.5-3.1-21-8.8-30.5c0,3.4,0,6.8,0,10.1c1.7-3.4,3.4-6.8,5.1-10.2
				c-5.8,0-11.6,0-17.3,0c2.9,4.1,5.9,8.1,8,12.7c2.3,4.8,2.6,9.8,3.2,15c1.3,10.7,5.8,22.2,16.9,25.9c4.8,1.6,9.8,1.3,14.5-0.4
				c4.7-1.6,8-3.5,13-2.5c10.9,2.2,20.6,5.6,31.5,1c9.5-4,16-12,24-18.2c8.4-6.6,17-8.6,27.4-10.2c10.2-1.5,18.5-5.4,26.6-11.8
				c6.7-5.3,12.5-12,20-16.4c4.1-2.4,8.7-3.2,12.9-5.3c6.1-2.9,9.6-8.2,11.5-14.5c1.7-5.5,2.9-11.2,4.4-16.7
				c1.2-4.6,2.4-9.3,5.8-12.7c-5.6-1.5-11.2-3-16.8-4.4c-0.3-0.9-0.5-0.5-0.8,1.3c6.6,0.9,13.1,1.8,19.7,2.7
				c-1-16-8.8-33.8-23.2-42.2c-8.1-4.8-16.8-1.9-25.3,0.1c-5.4,1.3-14.2,3.7-19.3-0.3c-0.7,5.3-1.4,10.5-2,15.8
				c2.7-1.6,5.5-3.3,8.2-4.9c9.4-5.6,3.2-22.6-7.7-18.4c-3.3,1.3-6.9,2.5-10.4,2.9c2.9,5,5.8,10.1,8.7,15.1c0.9-1.6,1.2-1.7,2.6-1.1
				c0.2,0.1,2.9,3.9,2.4,3.4c0.1,0.1,1.9,1.5,2.1,1.6c0.2,0.1,0.5,0.2,0.7,0.3c3.5,2,7.3,3.5,10.9,5.2c7.4,3.5,14.8,7,22.2,10.5
				c8.8,4.2,18.9-4.5,13.7-13.7c-5.7-10.2-16-18.3-27.7-20.1c-13.9-2.2-25.6,7.7-37,14.4c3.4,0,6.8,0,10.1,0
				c-4.6-2.5-9.2-5-13.8-7.5c-3.1-1.7-7.1-1.9-10.1,0c-9.9,6.3-21,10-32.7,10.6c0.9,6.6,1.8,13.1,2.7,19.7c10-1.8,19.5-4.9,28.8-9.1
				c10.3-4.5,2.9-22.5-7.7-18.4c-11.4,4.5-22.8,9-34.3,13.5c-6,2.4-12,4.7-18,7.1c-5.2,2-10.6,3.8-15,7.2
				c-4.5,3.4-7.3,8.1-10.6,12.6c-3,4-6.3,7.8-9.8,11.3c-7.5,7.6-15.8,14-24.9,19.4c-7.3,4.3-6.1,16.3,2.4,18.4
				c8.8,2.2,11.1,13.2,13.3,20.6c1.6,5.3,3.1,11.2,6.2,15.9c4.6,6.7,12.2,6.3,19.4,6.6c12.4,0.4,25.8,2.1,37.7-1.9
				c11.8-4,22-11.6,32.4-18.3c19.8-12.6,43.5-18.5,61.8-33.4c9.1-7.4,15.5-17.1,19.4-28.2c3.8-10.8,7.3-24.8,3.5-36
				c-3.9-11.8-15.7-19.9-28.1-16.3c-4.8,1.4-8.7,4.7-13.7,5.2c-5.5,0.6-11.2-0.7-16.7-1.2c-5.9-0.6-11.9-0.6-17.7,0.9
				c-5.8,1.5-11.2,4.5-16.5,7.3c-11.2,5.9-22.8,10.9-34.2,16.4c-20.8,10-41.3,22.5-54.7,41.8c-3.4,4.9-5.8,10.5-5.3,16.6
				c0.5,7,5,12.3,9.5,17.3c8,8.9,17.2,19.1,29.8,20.2c6.4,0.5,13.1-0.7,19.4-1.5c6.6-0.9,13.3-1.9,19.7-3.9
				c12.7-3.9,23.7-11.3,32.8-20.9c19-19.8,31.3-44.8,47.8-66.5c-6.1-2.6-12.2-5.2-18.4-7.7c-1.4,4-4,7.4-6.7,10.6
				c-3.7,4.5-7.4,9-11,13.7c-7.1,9.2-13.7,18.7-19.8,28.6c-5.4,8.8,5.2,18.5,13.7,13.7c18.7-10.4,35.6-23.9,49.6-40
				c7.8-8.9-1.8-20.3-12.2-15.8c-3.2,1.4-6.4,2.8-9.5,4.3c4.1,5.3,8.1,10.5,12.2,15.8c8.8-9.9,13.8-21.8,14.5-35
				c0.5-7.9-8.8-12.1-15.1-8.7c-17.8,9.8-38.9,10.1-58.2,14.8c-10.1,2.5-19.8,6.3-28.8,11.6c-9.2,5.4-17.8,11.8-27.1,16.9
				c-9.9,5.4-18.5,10.8-24.2,20.9c-2.5,4.4-5.6,9.5-5.7,14.7c-0.1,6.8,4.2,11.8,9.5,15.4c18.8,12.6,45.5,4.6,64.1-4.5
				c11.3-5.5,16.2-15.6,21-26.5c4.8-10.9,10.8-21.4,18.1-30.8c-5.7-2.4-11.4-4.7-17.1-7.1c0.4,6.2-3.9,10.4-9,13.4
				c-7.1,4.2-15.1,6.9-22.5,10.7c-15.6,8-30.3,17.8-45.2,27c4.6,1.2,9.2,2.4,13.7,3.6c-0.1-0.6-0.1-0.3,0,0.9
				c0.1-0.6,0.3-1.2,0.5-1.8c1-1.5,1.8-2.8,3-4.1c2.3-2.3,4.7-4.4,7.3-6.2c6-4.3,12.7-7.7,19.4-10.7c13.9-6.4,28.3-11.5,41.2-19.8
				c5.6-3.6,7.4-14.2,0-17.3c-11.2-4.8-22.4-9.5-33.5-14.3c-3.3-1.4-6.2-2.6-10-2c-7.3,1.2-14.3,1.9-21.8,2.3
				c-7.2,0.4-14.4,2-19.8,7.1c-5.4,5.2-8,12.7-11.1,19.3c-2.3,4.9-1.4,10.8,3.6,13.7c4.3,2.5,11.5,1.4,13.7-3.6
				c2.7-5.9,4.6-15.4,12-16.4c4.4-0.6,9-0.3,13.4-0.7c5.1-0.5,10.2-1.3,15.2-2.4c-2.6-0.3-5.2-0.7-7.7-1
				c11.9,5.1,23.8,10.2,35.8,15.3c0-5.8,0-11.6,0-17.3c-15.5,10-33.3,15.3-49.5,23.9c-15.5,8.2-39.6,24.9-29.2,45.3
				c2.4,4.8,9.3,6.3,13.7,3.6c17-10.5,33.8-22,52-30.3c8.6-3.9,17.3-7.2,24.3-13.8c6.6-6.3,10.9-15.2,10.3-24.3
				c-0.5-7.6-11.3-14.6-17.1-7.1c-5.9,7.6-11.4,15.4-15.9,23.9c-4.1,7.5-6.7,15.9-11.1,23.2c-4.3,7.2-13,9.1-20.5,11.6
				c-7.9,2.6-16.7,5.1-25,2.9c-1.8-0.5-3.5-1.1-5.1-2c-0.2-0.1-1.7-1.3-1.8-1.3c2-0.4-1.9,6.5,1.4,2.3c2.6-3.3,3.6-7.4,6.7-10.4
				c6-5.6,14.6-8.7,21.5-13.1c7.8-4.9,15.3-10.3,23.5-14.5c7.4-3.8,15.5-6.1,23.6-7.8c19.8-4.2,40.1-5.8,58.2-15.7
				c-5-2.9-10.1-5.8-15.1-8.7c-0.5,7.7-3.5,15-8.7,20.8c-7.8,8.7,1.9,20.6,12.2,15.8c3.2-1.5,6.3-2.9,9.5-4.3
				c-4.1-5.3-8.1-10.5-12.2-15.8c-13,14.9-28.2,27.3-45.6,36.9c4.6,4.6,9.2,9.2,13.7,13.7c6.2-10.1,12.9-19.9,20.3-29.2
				c7.2-9.1,15.4-17.3,19.2-28.4c1.6-4.7-1.5-10.1-5.8-11.8c-5-2-9.4,0-12.5,4.1c-11.5,15.1-21,31.7-32.1,47.1
				c-9.7,13.4-21.1,26.5-37.4,31.3c-8.3,2.5-17,3.4-25.6,4.2c-3.4,0.3-6.5,0.9-9.5-1.1c-3.8-2.5-7.1-6.2-10.2-9.5
				c-1.8-1.8-6.3-5.2-6.8-7.7c-0.5-2.3,2.6-5.5,4-7.2c5.2-6.6,11.7-12.4,18.6-17.2c15.4-10.7,32.9-17.9,49.7-25.9
				c7.8-3.7,15.9-9.6,24.5-11.4c8.1-1.6,16.7,1.2,24.9,1.3c4.6,0.1,9.5-0.5,13.9-2.1c2-0.8,4-1.7,5.9-2.7c0.8-0.4,1.6-0.7,2.3-1.1
				c1.1-0.6,2.3,0.1,0.7-0.5c6.1,2.2,3.5,12.3,2.5,17.1c-1.7,8-4.2,16.1-9.4,22.6c-4.9,6.1-11.5,10.5-18.3,14.2
				c-9.1,5-18.9,8.6-28.3,13.1c-9.6,4.5-18.5,10.3-27.4,16.1c-8,5.2-16.4,11.4-26.2,12.4c-5.5,0.6-11.2,0.1-16.8-0.1
				c-4.8-0.1-11.3,0.8-15.9-0.7c1.5,0.9,3,1.7,4.4,2.6c-1.9-1.6-3.2-8.5-4.1-11.5c-1.5-5-3.1-10.1-5.5-14.8
				c-4.3-8.6-11.8-15.9-21.4-18.2c0.8,6.1,1.6,12.2,2.4,18.4c9.1-5.4,17.7-11.8,25.4-19.1c3.8-3.6,7.5-7.5,10.8-11.6
				c3.4-4.1,6.1-8.9,9.6-12.8c2.6-2.9,7-4,10.6-5.4c5.7-2.2,11.4-4.5,17.1-6.7c11.4-4.5,22.8-9,34.3-13.5
				c-2.6-6.1-5.2-12.2-7.7-18.4c-7.6,3.4-15.8,5.6-24,7c-11.1,2-8.6,20.3,2.7,19.7c15.3-0.8,29.9-5.1,42.9-13.3c-3.4,0-6.8,0-10.1,0
				c3.1,1.7,6.3,3.4,9.4,5.1c1.4,0.7,2.7,1.5,4.1,2.2c4.8,2.4,8.5,1.3,12.9-1.3c4.1-2.4,8.2-4.8,12.3-7.2c2.4-1.4,4.8-3.5,7.7-3.6
				c6.2-0.1,12,5.9,14.8,10.8c4.6-4.6,9.2-9.2,13.7-13.7c-11.3-5.3-22.6-10.7-33.8-16c1.2,1.2,2.4,2.4,3.6,3.6
				c-8.2-15.2-29.7-15.1-38.1-0.2c-3.4,6,0.8,16,8.7,15.1c5.5-0.6,10.6-1.6,15.8-3.6c-2.6-6.1-5.2-12.2-7.7-18.4
				c-2.7,1.6-5.5,3.3-8.2,4.9c-5,3-7.2,11.6-2,15.8c13.5,10.8,28.4,7.8,44,4.2c1.2-0.3,2.5-0.7,3.7-0.9c2.6-0.4,0.3-0.3,1.5,0.4
				c2.6,1.6,5,4.8,6.7,7.4c3.4,5.2,5.5,10.9,5.9,17.1c0.7,11.6,15.7,13.2,19.7,2.7c1.5-4,1.9-7.8,0.8-12c-1.9-7.3-11.5-9.8-16.8-4.4
				c-7,7.1-9.6,16.3-12,25.6c-1.2,4.7-2.3,9.5-3.7,14.1c-0.1,0.3-0.9,1.1,0.5-0.2c-0.2,0.2-1,0.7-1.3,0.8c-2,0.6-4,1.3-6,2
				c-8.6,3.2-15.6,8.8-22.4,14.9c-5.3,4.7-10.6,10.2-17.4,12.8c-9,3.4-19,2.7-28.1,6.4c-9.5,3.9-17.3,10.1-24.8,16.9
				c-5.9,5.4-11.3,10.4-19.7,8.6c-9.8-2.1-19.1-5.3-29-1.6c-1.6,0.6-5.5,3.2-7.3,2.6c-0.4-0.1-0.4-0.6-0.8-1.1
				c-2.6-2.6-2.5-7.9-2.9-11.4c-1.4-12.6-6.1-22.2-13.4-32.5c-4-5.7-13.7-7.3-17.3,0c-2.2,4.4-6.5,10.3-6.5,15.3c0,3,1.7,5.3,3,7.9
				c1,2.1,1.6,4.4,2.2,6.7c1.3,5.3,1.9,10.8,3,16.2c2,9.9,6.6,19.6,14.7,26c9.4,7.4,20,6.8,30.5,2.3c2.8-1.2,6.2-3.3,9.3-2.6
				c2.2,0.5,4.5,2.3,6.5,3.2c3.1,1.4,6.3,2.4,9.7,2.7c12.2,1.2,23.2-5.9,31.8-13.8c6.2-5.8,12.1-14.2,20.5-16.9
				c4.7-1.5,9.6,0.2,14.4,0c4.8-0.2,9.3-1.5,13.6-3.8c6.8-3.6,12.1-9.4,17.2-15.1c4.6-5.2,9-10.5,14.3-13.4c0.7-0.4,1.5-0.7,3.5-1.1
				c-1.7,0.3,1.3-0.1,1.3-0.1c1.6,0,3.1,0,4.7-0.1c5.6-0.4,10.8-2.2,15-6.2c5.7-5.4,7.7-13.4,9.5-20.7c0.7-2.7,1.8-7.1,2.4-8.5
				c1.8-4.3,3.6-4.7,7.2-8.2c9.9-9.7,4.9-22,0-32.8c-8.8-19.6-25.5-40.1-49.7-35.4c-2.6,0.5-5.1,1.5-7.6,2.4c-1.7,0.6-4.8,0.9-6,1.7
				c-2.1,1.3,3.2-0.3,2.2,1.3c0.2-0.4-1.6-3.1-1.8-3.4c-1.9-2.9-4.8-5.2-8.2-6.2c-6.6-2-13.9,1.2-20.1,3.1c-6.4,2-12.7,4.2-19,6.6
				c-12.8,4.8-25.4,10.2-37.7,16.1c-6,2.9-11.8,6-17.7,9.1c-4.9,2.6-9.8,5-15.5,4.9c-4.6-0.1-8.3,3.2-9.7,7.4
				c-2.6,8.1-7.3,15.2-13.6,20.9c-6.8,6.2-15.6,9.6-22.8,15.3c-7.2,5.7-11.7,13.1-12.5,22.3c-0.7,8.7,3.3,17.8,11.3,21.8
				C1042.3,879.5,1052.5,862.2,1041,856.4L1041,856.4z"/>
		</g>
	</g>
</g>
<g>
	<g>
		<g>
			<path fill="#76AF3F" d="M1356.6,856.2c0.6-0.8,1.2-1.6,1.9-2.4c-0.2,0-0.5,0-0.7,0c-0.4-0.4-3.8-0.2-4.6-0.2
				c-2.3,0.1-4.7,0.4-7,1.1c-3.7,1.1-7.8,4-11.7,3.7c-4.5-0.3-9.7-3.1-13.9-4.7c-5-1.9-10-4.1-14.8-6.4c-2.3,5.4-4.6,10.9-6.9,16.3
				c7.3,1.6,14.5,3.7,21.3,6.7c0.7-5.4,1.4-10.9,2.1-16.3c-7.1,2.1-14.5,2.7-21.8,1c-8-1.9-14.1-6.8-21.5-9.9
				c-7.7-3.2-16-3.5-24.2-4.3c-6.3-0.6-12.6-1.9-17-6.8c-2.1,5.1-4.2,10.2-6.3,15.2c7-0.3,13.5,0.4,20.2,2.3
				c10.2,2.8,14.9-10.7,6.9-16.3c-7-4.9-15.4-5.3-23.7-5.6c-7.9-0.3-14.1-1.9-20.8-6.4c-6.2-4.2-11.6-9.6-17.4-14.3
				c-3.6-3-7.1-5.4-11.6-7c-2.2-0.8-7.8-1.7-9.1-4c0.4,1.5,0.8,3,1.2,4.5c0-2.1,3.1-6.6,4-8.6c-3.4,1.4-6.7,2.7-10.1,4.1
				c5.9,1.7,10.1,5.2,13.3,10.4c3.9,6.2,7.9,11.6,14.6,14.8c6.6,3.2,14,5.2,21.2,6.7c7.3,1.5,15,1.4,22.1,3.6
				c6.4,2,11.5,7.5,16.8,11.4c5.4,4,11.5,7.4,18.1,9c13.8,3.4,28.5-1.3,41.9,3.6c8.7,3.2,14.6-8.9,8.7-14.9
				c-4.5-4.5-11-6.4-17.1-4.3c-6.8,2.3-9.3,12.5-2.1,16.3c11.3,6,26.9,13.6,40,11.1c6.1-1.1,11.2-4.9,16.6-7.6
				c5.6-2.8,11.8-4.5,18-5.4c-2.9-5-5.8-9.9-8.7-14.9c-6.3,5.8-7.3,13.7-10.9,21c-1.8,3.7-4.2,4.1-8.2,4.9
				c-5.4,1.1-10.7,1.8-16.2,2.2c-22,1.6-43.7-1.8-64.2-9.9c-0.8,5.8-1.6,11.7-2.4,17.5c3.5-0.2,6-1,8.3-3.6
				c5.4-5.9,1.5-14.7-6.3-15.2c-10-0.7-19.9-2.1-29.6-4.3c-8.3-1.9-17.3-3.8-25-7.7c-7.3-3.7-11.9-10.2-17.3-16
				c-5.6-6-12.5-11.6-20.8-13.3c-3.9-0.8-8.2-0.1-12-1.2c-1.5-0.4-0.5,0.3-0.7-0.5c-0.4-1.6,0.7-4.6,1-6.2c1.6-8.8,5-17.5,6.2-26.3
				c0.9-7,1.9-14,2.8-21c0.5-3.8-3.1-7.7-6.6-8.6c-4-1.1-7.9,0.8-10.1,4.1c-7.6,11.4-12.9,24.4-15.7,37.9c-2.4,11.7-5.5,27.3,1,38.2
				c3.2,5.3,8.7,8.6,14.6,9.7c5.3,1,11.9-0.1,16.7,2.6c3.6,2.1,6,6.2,8.4,9.5c3.4,4.8,7,9.5,11.8,13c10.7,7.8,24.3,6.1,36.6,9.2
				c13.9,3.5,27.1,9.6,41.1,13.1c14.3,3.6,29,5.7,43.6,6.4c13.9,0.7,28.6,0.6,42.3-2.3c15.8-3.3,22.4-17.4,28.2-30.9
				c6.7-15.3,12.4-31,15.7-47.4c2.2-11.2-15-16-17.2-4.7c-2.5,12.6-6.4,24.8-11.2,36.8c-2.2,5.4-4.5,10.8-7.1,16.1
				c-2.1,4.3-4.6,9.8-9.3,11.9c-4.6,2-10.4,1.9-15.3,2.3c-6.8,0.5-13.6,0.7-20.4,0.5c-12.8-0.3-25.6-1.8-38.1-4.5
				c-12.4-2.7-24.2-6.9-36.1-11.1c-5.4-1.9-10.9-3.6-16.6-4.7c-5.9-1.1-12-1.2-17.8-2.4c-10.1-2.1-13.9-10.1-19.8-17.7
				c-7.1-9.1-15.8-12.1-27-12.9c-4.5-0.3-7.8-0.2-8.5-5.4c-0.8-5.6,0.3-12,1.2-17.5c2.3-13.3,7-25.7,14.5-36.9
				c-5.5-1.5-11.1-3-16.6-4.5c-0.9,6.4-1.2,13.1-2.6,19.4c-0.9,3.9-2.9,9.5-4.1,14.8c-1.7,7.4-4.5,16.3-2.9,23.8
				c1.6,7.8,8.4,12.4,16,13.6c7,1,12.2,0.3,17.9,5.2c5.3,4.5,9.3,10.3,14.3,15.1c5.5,5.3,12,8.8,19.1,11.4
				c17.7,6.5,36.8,9.7,55.5,11c-2.1-5.1-4.2-10.2-6.3-15.2c-0.3,0.3-0.5,0.6-0.8,0.9c2.1-0.9,4.2-1.7,6.3-2.6c-0.4,0-0.8,0-1.2,0.1
				c-10.5,0.5-11.6,13.9-2.4,17.5c22.9,9,48,12.6,72.5,10.2c10.6-1,25.1-1.6,32.6-10.3c3.3-3.9,5.1-8.5,6.8-13.3
				c1.2-3.5,2.1-7,4.8-9.5c2.9-2.7,3.3-7.5,1.4-10.8c-2.2-3.7-6.1-4.7-10.1-4.1c-5.6,0.8-10.9,2.3-16.1,4.5
				c-5.1,2.1-9.7,5.2-14.7,7.5c-4.4,2-9.3,0-13.7-1.3c-5.7-1.8-11.1-4.1-16.4-6.9c-0.7,5.4-1.4,10.9-2.1,16.3c0.7-0.2-1-1.1-0.2-0.3
				c2.9-5,5.8-9.9,8.7-14.9c-13.7-5.1-28.1-0.2-41.9-3.6c-13.5-3.4-21.6-16.4-34.8-20.4c-7.2-2.2-14.8-2.2-22.1-3.6
				c-6.3-1.3-14.4-2.6-19.8-6.4c-4.7-3.4-6.9-10.1-10.8-14.4c-4.9-5.4-11.5-9.1-18.5-11.1c-3.5-1-8.5,0.6-10.1,4.1
				c-2.3,5.1-6.4,11.2-6.4,16.9c0,6.2,4.9,10.1,9.8,13c4.5,2.6,10.1,3.2,14.2,6.3c3.9,2.9,7.5,6.4,11.3,9.6
				c7.7,6.5,16.1,12.8,26.1,15.3c9.1,2.3,20.8-0.8,28.7,4.7c2.3-5.4,4.6-10.9,6.9-16.3c-8.1-2.3-16.5-3.3-24.9-2.9
				c-7.9,0.3-11.5,9.4-6.3,15.2c5.8,6.5,14.1,9.8,22.5,11.1c8.6,1.4,18,0.6,26,4.4c4.1,2,7.8,4.7,12,6.5c4.3,1.9,8.7,3.3,13.4,4.2
				c9.4,1.6,18.9,1.1,28-1.6c6.7-2,9.6-13.1,2.1-16.3c-8.3-3.6-16.7-6.6-25.6-8.5c-9.3-2-16.5,11.7-6.9,16.3
				c6.8,3.2,13.8,6.2,20.8,8.9c7,2.6,14.2,5.6,21.9,4.3c3-0.5,5.7-1.8,8.6-2.9c3.3-1.3,5.3-1.4,8.8-1.3c7.9,0.2,14.1-3.1,17-10.6
				c1.7-4.5-1.9-9.8-6.2-11C1362.5,848.5,1358.3,851.6,1356.6,856.2L1356.6,856.2z"/>
		</g>
	</g>
	<g>
		<g>
			<path fill="#9BD162" d="M1200.7,718.3c-0.9-3,3.7-5.1,6.6-5.4c7.2-0.8,14.8,3,21.8,4.3c15.7,3,31.3,0.7,45.6-6.5
				c-4.1-0.5-8.1-1-12.2-1.6c6.8,7.1,15.9,10.4,25.1,13.3c9.8,3,19.6,6.3,29.2,10c9.4,3.6,18.7,7.7,27.9,12
				c4.4,2.1,8.8,4.3,13.1,6.6c1.9,1,4.4,3.1,6.5,3.5c0.2,0,1,0.7,1.2,0.6c-0.5,0.3-0.6-6.7-2-1.2c-2.4,9.8,3.7,17.3,11.9,21.6
				c6.3,3.3,11.9,5.1,14.3,12.6c2.6,8.2,0.4,16.6-2.3,24.5c-1.3,3.9-2.6,7.9-4.5,11.6c-0.3,0.5-0.9,2-1.4,2.5
				c-0.6,0.6,1.4-0.5,0.6-0.4c-2.2,0.1-4.3-0.4-6.5-0.4c-8.2,0-15.5,3.9-22.3,8c-2.8,1.7-5.7,3.7-8.7,4.9c0.2-0.1-2.1,0.6-2.9,0.7
				c0.6-0.1-0.6-0.4-0.6-0.4c-3.2-2.3-5.6-5.4-9-7.6c-3.2-2.1-7-3.5-10.8-4.3c-7.7-1.6-15.5-1-23.2-0.6c-6.3,0.4-13.3,1.1-18.1-1.7
				c-2.9-1.7-4.9-4.9-7.3-7.6c-3.1-3.4-6.9-6.1-11.1-7.9c-8.7-3.8-18.2-4.1-27.5-4c-6.7,0-14.2,0.2-20.2-3.1c-3.2-1.7-4.1-4-5.2-7.5
				c-1.7-5.3-3.8-10.3-8.1-14c-3.7-3.2-8.1-5-12.6-6.7c-2.8-1.1-6.3-2.1-7.7-5.1c-2.7-5.8,2.2-14.1,5.5-19.1
				c5.9-8.7,12.5-16.8,15-27.2c-2.3,2.3-4.7,4.7-7,7c3.6-1.2,7.2-2.4,10.8-3.6c-4.1-4.1-8.2-8.2-12.4-12.4
				c-0.8,4.9-1.7,9.9-3.3,14.6c-1.5,4.4-4.3,7.9-7.2,11.5c-6.5,8.2-12.2,18.1-8.8,28.9c1.6,5.1,5.2,9.3,9.8,11.9
				c3.4,2,7.6,2.7,10.4,5.4c6,5.7,8.2,14.4,14.4,20.1c15.8,14.5,39.1,5,56.6,15.6c9,5.4,15.9,12.5,26.3,15.4
				c10,2.7,20.5,1.9,30.7,3.3c5.2,0.7,9.4,2.6,14,4.8c6.5,3.1,12.9,3.9,19.7,0.8c5.2-2.3,9.9-5.6,14.8-8.4c4.9-2.9,10-6.4,15.8-6.5
				c-2.9-5-5.8-10.1-8.7-15.1c1.1-0.8,1.2-0.9,0.3-0.4c-0.6,0.3-1.3,0.6-1.9,0.9c4.1,5.3,8.1,10.5,12.2,15.8
				c10.6-12,17.8-30.2,13.5-46.3c-2.4-9-10.4-13.1-17.8-17.6c-4.8-3-12.8-7.5-13.5-13.9c-4.2,3.2-8.5,6.5-12.7,9.7
				c3.1,0.8,6.2,1.6,9.3,2.3c4.8,1.2,10-1.2,11.8-5.8c1.7-4.2,0.5-10.5-4.1-12.5c-3.3-1.5-6.7-3.2-9.5-5.4c-1.5,5.6-3,11.2-4.4,16.8
				c1.7-0.5,1.8-0.3,2.5,1.1c0,0-0.7,5.3-0.7,4.1c0,0.2,0.3,2.5,0.4,2.7c0.1,0.3,0.2,0.5,0.3,0.7c1.1,3.8,2.7,7.6,4.1,11.4
				c2.7,7.7,5.5,15.4,8.2,23.1c3.2,9,16.6,10,19.4,0c3.4-12.3,1.3-26.3-7.1-36.3c-3.8-4.5-8.6-6.8-14.2-8.3
				c-6.7-1.8-13.5-3.5-20.2-5.2c2.3,2.3,4.7,4.7,7,7c-1.5-5-3-10-4.4-15.1c-1-3.3-3.6-6.2-7-7c-11.5-2.6-22-7.8-30.7-15.7
				c-4.1,5.3-8.1,10.5-12.2,15.8c8.3,5.8,17.3,10.3,26.7,14c10.5,4.1,18.2-13.8,7.7-18.4c-10.6-4.7-21.3-9.3-31.9-14
				c-5.3-2.3-10.6-4.7-16-7c-5.4-2.4-11-5.5-16.9-6.8c-5.7-1.2-10.9-0.3-16.6,0.6c-5.2,0.9-10.4,1.3-15.6,1.4
				c-11.2,0.2-22-1.1-32.8-3.9c-8.3-2.2-15.9,7.1-11.3,14.7c4.9,8.1-2.2,18.2-6,25.3c-2.9,5.4-6.6,11.6-6.3,18
				c0.4,7,6.8,12,11.3,16.8c8,8.6,15.8,18.4,26.7,23.6c11.4,5.4,24,7.2,36.1,9.9c23.8,5.4,45.6,19.1,70.3,20.2
				c12.5,0.6,24.5-3.2,35.3-9.4c9.7-5.6,20.1-12.6,24-23.6c3.9-11-0.4-23.5-11.1-28.5c-4-1.9-8.5-2.5-12-5.4
				c-3.5-2.8-6.3-6.7-9-10.3c-6.9-8.9-14.4-15-25.2-18.8c-11.7-4.1-23.5-7.9-35.2-12.2c-23.7-8.6-48.4-15.8-73.8-12
				c-12.6,1.9-20.9,8.9-22.3,21.9c-1.2,11.1-2.4,25.7,3.1,35.9c3,5.6,8.2,9.4,13.1,13.4c5.2,4.2,10.5,8.4,16.1,12
				c11.5,7.2,24.2,11.1,37.7,11.6c28.5,1.2,56.1-9,84-12.7c-1.7-6.2-3.4-12.5-5.1-18.7c-3.9,1.9-8.4,2.3-12.7,2.7
				c-5.8,0.5-11.6,1.1-17.4,1.9c-11.3,1.5-22.6,3.5-33.7,6.2c-9.9,2.3-9.2,16.7,0,19.4c20.6,5.9,42.1,8.3,63.5,6.9
				c11.7-0.8,13.1-15.6,2.7-19.7c-3.2-1.3-6.5-2.5-9.8-3.7c-0.9,6.6-1.8,13.1-2.7,19.7c13.3-0.7,25.1-5.6,35.1-14.5
				c5.8-5.2,2.5-14.8-4.4-16.8c-18.3-5.3-32.7-18.7-48.5-28.8c-8.4-5.4-17.4-9.9-27-12.9c-10.6-3.3-21.7-4.8-32.4-7.6
				c-11.9-3.1-22.4-6.7-34.7-3.6c-5.1,1.3-11.2,2.9-15.1,6.6c-4.9,4.7-5.3,11.3-4.1,17.6c4.2,21.5,26.4,33.1,44.8,40.8
				c12.5,5.2,23.6,3,35.8-1.8c11.6-4.6,23.7-8,36.1-9.5c-2.4-5.7-4.7-11.4-7.1-17.1c-3.6,4.1-8.9,4.6-14.1,3.5
				c-8.4-1.8-16.1-5.8-24.2-8.5c-16.9-5.5-34.6-9-51.9-13.2c2.3,4.1,4.7,8.2,7,12.4c-0.3,0.9-1.8,0.5,0.3,0c0.1,0,2.1-0.7,2.8-0.8
				c2.5-0.4,6.5-0.2,9.5,0.1c7.3,0.8,14.5,3.1,21.4,5.5c15.3,5.5,30,12.8,45.9,16.2c6.7,1.4,15.4-4.7,12.4-12.4
				c-4.5-11.2-9-22.4-13.4-33.6c-1.3-3.3-2.5-6.3-5.6-8.5c-5.6-4.1-10.9-8-16-12.8c-5.3-4.9-11.2-9.2-18.6-9.9
				c-8.1-0.7-15.8,2.9-23.2,5.7c-5.1,1.9-8.5,6.8-7,12.4c1.3,4.9,7.2,8.9,12.4,7c4.4-1.6,8.8-3.8,13.4-4.8c3.2-0.7,4.7,0.2,7.1,2.2
				c7.2,6,13.8,12.4,21.8,17.5c-1.5-2-3.1-4-4.6-6c4.8,12,9.6,24.1,14.5,36.1c4.1-4.1,8.2-8.2,12.4-12.4
				c-19.2-4.2-36.5-14-55.4-19.3c-15.9-4.4-42.9-8.3-49.2,12.3c-1.6,5.1,1.9,11.1,7,12.4c19.7,4.7,40,8.5,59,15.7
				c16.4,6.2,37.1,12.9,50.8-2.7c2.7-3.1,3.8-7.1,2.1-11c-1.5-3.3-5.2-6.7-9.2-6.2c-10,1.2-19.8,3-29.5,6
				c-8.3,2.6-16.6,7.5-25.2,8.6c-7.9,1.1-16.4-4.6-23-8.2c-6.8-3.6-13.8-8-17.6-15c-0.8-1.5-1-3.2-1.8-4.6c-0.1-0.2-0.2-1.8-0.3-1.9
				c-0.3,0.5-0.7,1-1,1.6c-1.6,1.8-1.4,2.1,0.8,1c4.8-0.6,8.6-2.9,13.7-2.3c8.8,1.1,17.6,4.8,26.3,6.7c9.3,2,18.9,3.7,27.8,7.2
				c7.2,2.9,13.8,7.1,20.2,11.4c15.8,10.7,30.7,22.8,49.3,28.2c-1.5-5.6-3-11.2-4.4-16.8c-5.8,5.1-13.1,8.1-20.9,8.6
				c-11.5,0.6-13.4,15.9-2.7,19.7c3.3,1.2,6.5,2.4,9.8,3.7c0.9-6.6,1.8-13.1,2.7-19.7c-19.7,1.3-39.2-0.7-58.2-6.2
				c0,6.5,0,12.9,0,19.4c11.4-2.7,22.9-4.9,34.5-6.2c11.7-1.4,23.4-1.4,34.1-6.6c8.6-4.2,4.8-20-5.1-18.7
				c-20.2,2.7-39.8,8-59.9,11.1c-17.8,2.8-35.3,2.9-51-6.8c-7-4.3-13.7-9.5-19.8-15.1c-6-5.5-4.1-15.7-3.8-23.1
				c0.1-1.9,0.2-3.7,0.4-5.6c0.1-1.2,0.9-1.7,0.3-1.3c2.5-1.9,7.1-1.9,10.1-2.1c9.5-0.7,18.9,0.3,28.2,2.3
				c19,4.2,36.9,12.1,55.4,18.3c7.4,2.5,15.8,3.9,21.6,9.6c5.1,5,8.8,11.2,13.8,16.3c2.7,2.8,6,5.4,9.5,7.2
				c3.5,1.8,8.1,2.2,11.3,4.6c-1.3-1,0-0.6-0.1,0.5c-0.2,1.9,0.4,0.7-0.3,2.7c-0.9,3-4.2,5.5-6.6,7.3c-6.9,5.1-14.7,9.5-23,11.4
				c-8.6,2-17.6,0.3-25.9-2.1c-10.2-3-19.9-7.4-29.8-11c-10.4-3.8-21.2-6-32.1-8.3c-9.3-2-19.5-3.7-26.9-10.2
				c-3.9-3.5-7.4-7.4-10.9-11.2c-3.3-3.6-8.6-7.5-10.8-11.9c0.5,1.7,0.9,3.4,1.4,5.1c-0.1-3.7,3.9-8.5,5.6-11.6
				c2.4-4.4,4.7-9,6.3-13.8c3-9.3,2.8-19.6-2.3-28.1c-3.8,4.9-7.6,9.8-11.3,14.7c10.6,2.8,21.7,4.4,32.7,4.6
				c5.5,0.1,11-0.1,16.5-0.7c4.8-0.5,10.3-2.4,15.2-2c4.4,0.3,8.8,3,12.8,4.8c5.3,2.3,10.6,4.7,16,7c10.6,4.7,21.3,9.3,31.9,14
				c2.6-6.1,5.2-12.2,7.7-18.4c-7.8-3-15.1-7.2-21.9-12c-9.3-6.5-20.6,8.1-12.2,15.8c11.3,10.2,24.7,17.5,39.6,20.9
				c-2.3-2.3-4.7-4.7-7-7c1,3.4,2,6.9,3,10.3c1.8,6.1,3.3,10.2,10.3,12.3c4.2,1.3,8.6,2.2,12.9,3.3c2.7,0.7,6.4,1,8.8,2.4
				c5.6,3.4,5.4,13.7,3.9,19c6.5,0,12.9,0,19.4,0c-4.2-11.7-8.4-23.5-12.6-35.2c0,1.8,0,3.6,0,5.3c5.1-16.7-10.2-31.8-26.9-27.2
				c-6.7,1.8-10.6,11.9-4.4,16.8c4.3,3.4,8.6,6.3,13.6,8.6c2.6-6.1,5.2-12.2,7.7-18.4c-3.1-0.8-6.2-1.6-9.3-2.3
				c-5.7-1.4-13.5,3-12.7,9.7c1.9,17.1,14.5,25.6,28,34.1c1,0.6,2.4,1.3,3.3,2.1c2.2,1.9,0.4,0,0.8,1.4c0.7,2.9,0.2,6.9-0.4,9.8
				c-1.3,6.1-3.9,11.7-8,16.3c-7.9,8.9,1.9,20.2,12.2,15.8c3.8-1.6,6.9-4.1,8.8-7.7c3.5-6.6-0.8-15.2-8.7-15.1
				c-10.9,0.2-19.9,5.7-29.1,11c-2.1,1.2-4.1,2.4-6.2,3.6c-1,0.6-1.9,1.1-2.9,1.7c-0.1,0-2.5,0.9-1.3,0.8c1.3-0.1-0.7-0.2-1.3-0.5
				c-0.8-0.4-1.6-0.8-2.3-1.2c-2.4-1.2-4.9-2.4-7.5-3.3c-9.2-3.3-19.2-3.1-28.8-3.8c-9.3-0.7-16-3.3-23.4-8.9
				c-8-6-16.1-10.8-26-12.9c-9.1-1.9-18.4-1.2-27.4-2.8c-8.2-1.4-10.9-6.8-14.9-13.4c-2-3.4-4.3-6.7-7.1-9.5
				c-3.7-3.7-7.8-5.4-12.4-7.6c-0.5-0.2-0.9-0.4-1.4-0.7c-1.4-0.7-1.6-1.8-1.1-0.3c-0.4-1-0.5-1.5-0.2-2.7c0.8-4,4.3-7.4,6.8-10.5
				c7.5-9.4,10.6-19.5,12.6-31.2c1.2-7-4.4-15-12.4-12.4c-4.6,1.5-11.7,2.7-15.3,6.2c-3.2,3.2-3.9,9.3-6.3,13.3
				c-2.7,4.5-5.9,8.6-8.9,12.9c-11.5,16.9-14.3,42.1,7.6,51.8c3.2,1.4,8.3,2.4,10.9,4.9c3.1,3,3.3,9.4,5.6,13.3
				c4.9,8.4,14,13.2,23.3,15c10.1,2,20.2,0.4,30.3,1.7c3.5,0.4,7.4,1.3,10.1,3.6c4,3.3,6.5,8,10.8,11.1c7.5,5.5,17,6.6,26.1,6.4
				c7.5-0.2,16.4-1.7,23.1-0.3c3.8,0.8,5.3,1.9,8.2,4.7c4.4,4.3,9.2,7.3,15.4,7.9c8.6,0.8,16.2-3.8,23.3-8c3.1-1.9,6.4-3.8,9.5-4.8
				c3.9-1.2,9.7,0.7,14.6-0.7c11.3-3.2,15.1-16.1,18.6-25.9c7.1-20.1,7.4-47-14.3-58.4c-2.3-1.2-4.7-2.2-6.9-3.4
				c-0.6-0.3-1.5-1.1-2.2-1.3c-0.1,0-0.3-0.8-0.4-0.2c-0.4,5.5,0.7,1.5,0.9,1.3c1-1.3,1.1-4.2,1.1-5.8c0-3.8-1.3-7.3-3.9-10.1
				c-4.1-4.5-10.4-7.1-15.8-9.8c-6-3.1-12-6-18.1-8.8c-12.5-5.6-25.2-10.8-38.1-15.2c-5.9-2-11.8-3.8-17.7-5.7
				c-5.2-1.6-10.1-3.4-13.9-7.4c-3.2-3.4-8.2-3.6-12.2-1.6c-7.6,3.8-15.9,5.5-24.4,5.1c-8.5-0.4-16.5-3.9-24.9-5.1
				c-9.5-1.4-18.5,0-26,6.3c-7,5.8-10.7,15-7.9,23.9C1185.3,735.9,1204.7,730.7,1200.7,718.3L1200.7,718.3z"/>
		</g>
	</g>
</g>
</svg>
